<svg xmlns="http://www.w3.org/2000/svg" fill="none" viewBox="0 0 176 176"><path fill="#fff" d="M60.26 162.393c41.013 14.841 86.292-6.376 101.133-47.389s-6.376-86.292-47.39-101.132C72.99-.97 27.712 20.248 12.871 61.26s6.376 86.292 47.389 101.132"/><path fill="#1E1E1E" d="m114.707 25.588-3.178 6.81 5.235 2.443-.794 1.702-7.454-3.481 3.974-8.511 2.218 1.035zM119.085 32.432a3.06 3.06 0 0 1 1.315-.527 3.55 3.55 0 0 1 1.474.123 5.8 5.8 0 0 1 1.569.735q.81.529 1.328 1.191.519.663.679 1.397.158.733-.062 1.5-.221.767-.864 1.568l-4.92-3.218a1.46 1.46 0 0 0-.241.615q-.038.307.043.597.082.29.321.576.242.285.631.542.702.46 1.179.499.475.04.858-.206l1.536 1.448a2.9 2.9 0 0 1-1.061.505 3.6 3.6 0 0 1-1.133.085 4.1 4.1 0 0 1-1.154-.277 6.4 6.4 0 0 1-1.167-.609 5.8 5.8 0 0 1-1.303-1.142 3.6 3.6 0 0 1-.711-1.306 3.1 3.1 0 0 1-.06-1.416q.133-.738.632-1.501.49-.75 1.111-1.18m4.433 3.374a1 1 0 0 0-.031-.497 1.6 1.6 0 0 0-.314-.538c-.156-.19-.38-.376-.673-.568a3 3 0 0 0-.738-.365 1.8 1.8 0 0 0-.619-.08q-.284.019-.5.14a1.1 1.1 0 0 0-.357.336l3.087 2.017q.1-.207.148-.446zM131.628 41.7l-2.362-2.055-1.504 1.73a1.5 1.5 0 0 0-.273.433 1.2 1.2 0 0 0-.09.43.9.9 0 0 0 .096.42q.098.21.346.426.193.168.385.25t.397.12.424-.02q.218-.056.441-.203l.863 1.372q-.478.375-.997.528a2.6 2.6 0 0 1-1.033.091 3.3 3.3 0 0 1-1.004-.287 4 4 0 0 1-.95-.63q-.763-.666-1.043-1.294a2.54 2.54 0 0 1-.237-1.235q.044-.603.332-1.163.289-.561.728-1.064l1.299-1.492-1.139-.99 1.009-1.16.486.33q.297.221.604.327.306.106.631.077.326-.027.677-.212a5 5 0 0 0 .789-.538l.373-.298 1.095.953-1.494 1.719 2.362 2.054-1.205 1.386zM132.927 43.025q.725.376 1.368.492.645.116 1.27-.195a1 1 0 0 1-.284-.102 3 3 0 0 1-.213-.142 1.2 1.2 0 0 1-.176-.156l-.127-.135a1 1 0 0 1-.239-.4 1.17 1.17 0 0 1 .068-.854q.099-.2.272-.364.456-.426 1.039-.37.583.059 1.021.526.291.314.407.631a1.5 1.5 0 0 1-.081 1.217 2 2 0 0 1-.416.536q-.393.37-.923.534t-1.102.155a4.5 4.5 0 0 1-1.138-.163 4 4 0 0 1-1.017-.43l.267-.776zM136.365 51.607a2.6 2.6 0 0 0-.124-.442 11 11 0 0 0-.244-.61q-.147-.344-.329-.725a48 48 0 0 1-.363-.931 4 4 0 0 1-.251-.972 2.3 2.3 0 0 1 .043-.904q.107-.423.525-.742.475-.363 1.001-.4.529-.037 1.053.206.526.242 1.024.694.5.454.949 1.038.372.487.648 1.056.275.57.381 1.152.105.581.026 1.144-.08.563-.416 1.036l-1.42-1.243q.158-.357.051-.776t-.487-.917a7 7 0 0 0-.324-.388 4 4 0 0 0-.346-.336 1.2 1.2 0 0 0-.354-.203q-.184-.065-.319.038-.079.06-.069.25.009.191.111.463.101.271.255.61.153.341.337.72.174.44.363.931.188.493.266.953.075.462-.019.867-.094.402-.477.697-.488.373-1.012.399a2.3 2.3 0 0 1-1.059-.21 4 4 0 0 1-1.045-.697 7.3 7.3 0 0 1-1.649-2.151 4.3 4.3 0 0 1-.368-1.125 3.1 3.1 0 0 1 .003-1.107q.102-.544.433-1.049l1.453 1.288a.73.73 0 0 0-.144.361q-.02.195.037.422.055.227.195.476c.094.166.204.339.339.512q.146.19.321.383.173.189.346.336.173.145.325.191a.3.3 0 0 0 .286-.059q.08-.06.051-.238zM145.759 63.725a1.9 1.9 0 0 1-.187.754 1.8 1.8 0 0 1-.448.576 3 3 0 0 1-.672.438q-.64.313-1.175.302a2 2 0 0 1-.985-.265q-.45-.255-.825-.736a6.4 6.4 0 0 1-.708-1.159l-2.575-5.283 8.443-4.115 2.501 5.129q.312.64.447 1.208.134.567.048 1.06-.084.493-.392.905-.306.41-.882.691-.308.15-.651.224t-.699.047a1.9 1.9 0 0 1-.695-.192 2.5 2.5 0 0 1-.688-.52 2.5 2.5 0 0 1 .139.938zm-3.597-1.501q.186.382.366.638c.12.167.242.295.367.375a.67.67 0 0 0 .389.12q.204-.005.46-.128a1.1 1.1 0 0 0 .356-.26.7.7 0 0 0 .155-.369 1.3 1.3 0 0 0-.058-.51 4.5 4.5 0 0 0-.273-.675l-1.234-2.533-1.74.85 1.216 2.493zm3.201-1.782q.163.334.331.549.169.218.359.346.188.129.405.133t.473-.118q.243-.119.379-.279a.67.67 0 0 0 .155-.368 1.3 1.3 0 0 0-.059-.478 4 4 0 0 0-.251-.629l-1.142-2.34-1.779.867zM144.587 71.968a3.2 3.2 0 0 1-.643-.614 4 4 0 0 1-.473-.763 7 7 0 0 1-.324-.83q-.238-.775-.248-1.39t.26-1.07q.271-.458.83-.814.56-.357 1.432-.625l3.767-1.159.724 2.354-3.605 1.106a4 4 0 0 0-.761.309q-.311.171-.459.401a1 1 0 0 0-.142.551q.002.321.119.7.134.436.33.755c.131.215.284.381.46.507q.267.186.631.236.365.052.815-.086l3.646-1.121.718 2.34-6.803 2.09-.543-1.769 1.131-.734a2.4 2.4 0 0 1-.862-.376zM144.781 75.772l6.986-1.36.462 2.376-6.986 1.359zm8.977-2.006q.614-.12.999.226t.503.947q.122.628-.097 1.1-.221.47-.835.59-.629.12-1.023-.222-.394-.345-.516-.973-.115-.6.111-1.073.227-.473.855-.594zM148.093 81.13a2.5 2.5 0 0 0-.357.068.65.65 0 0 0-.256.126.5.5 0 0 0-.139.204.8.8 0 0 0-.032.304q.027.096.038.181t.033.161a1 1 0 0 0 .062.144q.036.066.047.139l-1.539.197a.65.65 0 0 1-.155-.267 4.5 4.5 0 0 1-.173-.673 5 5 0 0 0-.059-.3q-.063-.493.003-.94.064-.447.305-.814.24-.368.63-.582.39-.217.969-.274l7.864-1.006.304 2.372-7.538.965zM147.851 89.655q-.714-.275-1.141-.75-.427-.48-.608-1.145a5.7 5.7 0 0 1-.191-1.42 4.5 4.5 0 0 1 .22-1.52q.232-.68.696-1.162a3.05 3.05 0 0 1 1.149-.741q.686-.26 1.582-.271.925-.013 1.618.19.693.202 1.161.645.468.44.714 1.15.244.708.258 1.675.01.667-.152 1.318a2.9 2.9 0 0 1-.574 1.146q-.412.496-1.122.813-.706.315-1.803.331-1.096.015-1.812-.258zm-1.731.282 2.281-.702 7.712-.11.036 2.449-10.005.142zm4.356-.886q.351-.132.613-.395c.173-.172.305-.395.395-.66q.137-.4.131-.884a2.4 2.4 0 0 0-.154-.867 1.6 1.6 0 0 0-.413-.606 1.7 1.7 0 0 0-.632-.353 2.6 2.6 0 0 0-.819-.11 2.6 2.6 0 0 0-.802.131 1.7 1.7 0 0 0-.621.373q-.26.246-.397.618-.136.373-.131.87.007.483.155.88.148.396.413.65c.178.166.388.294.632.374a2.4 2.4 0 0 0 .807.116q.47-.008.823-.14zM144.978 99.546l3.026.681 7.097-2.97-.551 2.5-4.973 2.069 3.639 3.993-.543 2.473-5.185-5.703-3.029-.667.522-2.378zM142.808 113.042a3 3 0 0 1-.786-1.174 3.6 3.6 0 0 1-.196-1.468 5.7 5.7 0 0 1 .387-1.696 5.8 5.8 0 0 1 .847-1.55 3.6 3.6 0 0 1 1.12-.967 3.14 3.14 0 0 1 1.374-.368q.75-.033 1.603.291.852.322 1.39.849.539.524.781 1.188.244.663.196 1.468-.048.806-.396 1.721a5.8 5.8 0 0 1-.838 1.524q-.5.631-1.121.968a3.06 3.06 0 0 1-1.369.356q-.747.021-1.598-.303-.851-.325-1.396-.835zm2.771-5.082a1.5 1.5 0 0 0-.695.07 1.4 1.4 0 0 0-.588.423q-.261.303-.458.823-.207.545-.218.954-.009.406.158.706t.481.517q.313.219.726.376.424.163.798.205c.25.028.479.006.696-.07q.323-.113.588-.422.263-.31.469-.857.198-.52.206-.92a1.4 1.4 0 0 0-.157-.708 1.43 1.43 0 0 0-.48-.517 3.6 3.6 0 0 0-.729-.37 3.7 3.7 0 0 0-.794-.211zM138.663 118.26a3.2 3.2 0 0 1-.006-.888q.06-.449.22-.869t.374-.811q.391-.71.828-1.144t.95-.556q.515-.121 1.162.031.645.153 1.444.596l3.451 1.905-1.191 2.156-3.302-1.825a4.3 4.3 0 0 0-.75-.333 1.2 1.2 0 0 0-.606-.052 1 1 0 0 0-.495.28q-.23.223-.421.573a3.3 3.3 0 0 0-.316.761 1.7 1.7 0 0 0-.045.684q.05.321.268.618.217.298.629.525l3.339 1.843-1.183 2.143-6.229-3.441.895-1.619 1.312.302a2.4 2.4 0 0 1-.327-.881zM138.014 127.21q.181-.458.17-.896a1.9 1.9 0 0 0-.252-.864c-.159-.287-.42-.56-.777-.827l-2.373-1.769 1.455-1.952 5.704 4.253-.996 1.334-1.375-.368q.197.522.195.998a3.3 3.3 0 0 1-.127.919 4 4 0 0 1-.333.817q-.21.378-.465.718a3 3 0 0 1-.381.417 2.6 2.6 0 0 1-.465.337l-1.722-1.285q.175-.047.348-.131a2 2 0 0 0 .617-.482q.144-.16.273-.329.324-.432.507-.892zM133.184 138.652l-2.09 1.824-9.513-4.161 1.767-1.544 2.114.97 3.793-3.314-.676-2.223 1.759-1.537 2.845 9.987zm-6.089-2.128 3.953 1.801-1.242-4.169-2.712 2.37zM122.326 142.025q.118.76-.083 1.37-.198.608-.685 1.101a5.7 5.7 0 0 1-1.144.886q-.72.432-1.431.577a3.1 3.1 0 0 1-1.36-.014 3.05 3.05 0 0 1-1.215-.623q-.561-.468-1.025-1.236-.469-.781-.652-1.485a2.7 2.7 0 0 1-.031-1.335q.152-.632.642-1.198.488-.568 1.343-1.082a5 5 0 0 1 1.199-.52 2.8 2.8 0 0 1 1.283-.073q.647.108 1.279.552.63.442 1.194 1.381.566.94.68 1.7zm1.094 1.369-1.761-1.632-3.957-6.589 2.099-1.259 5.144 8.564zm-2.952-3.325a1.7 1.7 0 0 0-.673-.319 1.9 1.9 0 0 0-.765-.015q-.389.068-.818.326-.426.255-.67.568t-.316.664q-.073.35.017.72.09.369.325.761.228.378.512.631t.623.347q.34.094.734.033.396-.064.821-.319.426-.256.668-.575.24-.319.346-.68.106-.363.03-.748a2.4 2.4 0 0 0-.295-.753 2.3 2.3 0 0 0-.542-.639zM113.29 146.939q-.007.77-.297 1.338a2.76 2.76 0 0 1-.848.977 5.8 5.8 0 0 1-1.271.695 4.5 4.5 0 0 1-1.502.342 3.1 3.1 0 0 1-1.342-.228 3 3 0 0 1-1.099-.809q-.48-.55-.816-1.382-.34-.846-.408-1.569a2.7 2.7 0 0 1 .182-1.323q.248-.6.824-1.083.572-.484 1.499-.855a5 5 0 0 1 1.265-.323 2.8 2.8 0 0 1 1.28.13 3.2 3.2 0 0 1 1.175.747q.552.537.963 1.554.409 1.017.402 1.786zm.865 1.524-1.481-1.89-2.865-7.132 2.271-.913 3.723 9.272-1.65.662zm-2.386-3.75a1.6 1.6 0 0 0-.613-.419 1.9 1.9 0 0 0-.752-.135 2.4 2.4 0 0 0-.858.192q-.462.187-.752.456a1.56 1.56 0 0 0-.511 1.317q.027.38.199.802.165.41.405.703.241.296.562.441.319.148.719.15.399-.001.861-.186.463-.186.751-.461a2.1 2.1 0 0 0 .45-.618q.163-.341.15-.735a2.3 2.3 0 0 0-.171-.789 2.3 2.3 0 0 0-.433-.716zM92.896 154.543l3.764-.619-1.22-7.414 2.403-.395 1.22 7.414 3.764-.619.305 1.854-9.928 1.631-.305-1.853zM84.727 149.122q.269-.697.79-1.173a3.6 3.6 0 0 1 1.285-.735 5.8 5.8 0 0 1 1.716-.285 5.8 5.8 0 0 1 1.755.2q.775.223 1.319.672.546.449.86 1.133.315.684.338 1.592.02.91-.26 1.609a3.14 3.14 0 0 1-.806 1.173q-.524.476-1.285.735-.763.26-1.744.285a5.7 5.7 0 0 1-1.728-.2 3.6 3.6 0 0 1-1.319-.672 3.04 3.04 0 0 1-.846-1.134q-.3-.684-.324-1.592-.022-.912.247-1.608zm5.752.641a1.45 1.45 0 0 0-.327-.618 1.4 1.4 0 0 0-.615-.385q-.38-.125-.936-.111c-.39.01-.709.062-.965.158a1.4 1.4 0 0 0-.595.412 1.55 1.55 0 0 0-.297.641q-.083.373-.073.814.012.455.113.817.1.36.327.618.228.258.615.385.388.128.97.111.556-.014.931-.158.373-.144.596-.414c.15-.181.247-.392.297-.642a3.5 3.5 0 0 0 .067-.813 3.7 3.7 0 0 0-.105-.816zM82.43 148.435a.8.8 0 0 0-.232-.151 1.5 1.5 0 0 0-.347-.102 5 5 0 0 0-.43-.066l-3.659-.449a4.4 4.4 0 0 1-1.224-.315 2.5 2.5 0 0 1-.834-.57 1.8 1.8 0 0 1-.435-.771 2.4 2.4 0 0 1-.057-.939q.072-.58.36-.995.289-.415.734-.669a3 3 0 0 1 1.052-.338 5.2 5.2 0 0 1 1.326.004l3.177.39q.58.072 1.127.224.548.154.962.405.414.252.645.652t.164.952a1.8 1.8 0 0 1-.172.58q-.135.27-.356.445a1.5 1.5 0 0 1-.497.26q-.274.088-.59.079.216.11.38.232.165.12.281.277.118.156.155.364.039.206.009.447a1.7 1.7 0 0 1-.122.472q-.09.203-.251.35a1.3 1.3 0 0 1-.387.233 2.2 2.2 0 0 1-.518.123q.596.401.85.951.256.548.17 1.24-.081.664-.438 1.122a2.34 2.34 0 0 1-.955.714q-.6.257-1.401.323a8.8 8.8 0 0 1-1.765-.052 10 10 0 0 1-1.038-.178 6 6 0 0 1-.843-.254q-.112.343-.317.65a1.9 1.9 0 0 1-.5.506q-.295.2-.667.291-.369.09-.793.04-.126-.015-.233-.036a1 1 0 0 1-.226-.076l.21-1.724q.148.089.326.161.176.071.404.1.156.02.321.024.165.006.317-.017a1.3 1.3 0 0 0 .275-.074 1 1 0 0 0 .216-.124q-.753-.406-1.115-1.02-.363-.61-.263-1.417.083-.664.433-1.13.352-.465.948-.721.598-.258 1.393-.318.797-.059 1.8.062.564.07 1.075.181.51.11.918.292.173-.007.305-.036a.6.6 0 0 0 .218-.08.4.4 0 0 0 .13-.135.5.5 0 0 0 .057-.179.25.25 0 0 0-.073-.216zm-3.638-3.765a16 16 0 0 0-.63-.064 2.2 2.2 0 0 0-.591.027q-.27.054-.444.167a.42.42 0 0 0-.197.326.43.43 0 0 0 .064.301.7.7 0 0 0 .246.224q.16.091.426.16.263.069.547.103l3.7.453q.297.037.534.036.236 0 .394-.052a.64.64 0 0 0 .254-.149.38.38 0 0 0 .115-.236.5.5 0 0 0-.098-.379 1.1 1.1 0 0 0-.33-.284 1.8 1.8 0 0 0-.509-.184 7 7 0 0 0-.61-.105l-2.868-.351zm2.581 6.253a1 1 0 0 0-.288-.451 1.7 1.7 0 0 0-.576-.335 3.7 3.7 0 0 0-.871-.199 3.7 3.7 0 0 0-.907-.017 1.7 1.7 0 0 0-.641.187q-.254.14-.39.367-.135.226-.17.524-.035.285.056.537.09.256.31.461.218.204.567.343.35.136.858.199.508.062.886.016.38-.047.64-.193.264-.148.398-.375a1.3 1.3 0 0 0 .17-.508q.036-.295-.039-.55zM73.979 150.981a3.06 3.06 0 0 1-1.088.907q-.63.307-1.441.338a5.7 5.7 0 0 1-1.718-.219 5.4 5.4 0 0 1-1.632-.726 3.4 3.4 0 0 1-1.074-1.118 3 3 0 0 1-.401-1.445q-.027-.796.339-1.759l5.67 1.547q.099-.357.04-.662a1.5 1.5 0 0 0-.227-.555 1.55 1.55 0 0 0-.484-.448 3 3 0 0 0-.767-.321q-.812-.22-1.276-.113-.465.108-.752.458l-1.908-.904q.36-.507.854-.807t1.055-.427a4.2 4.2 0 0 1 1.184-.09q.623.039 1.296.22a5.8 5.8 0 0 1 1.59.684q.686.438 1.078 1.025c.26.392.427.836.492 1.329q.1.742-.141 1.622-.235.865-.694 1.463zm-5.256-1.847q.03.243.183.463.155.22.462.413.309.196.817.334.468.129.816.119.348-.007.614-.113a1.16 1.16 0 0 0 .434-.286q.167-.183.234-.431l-3.557-.971a1.8 1.8 0 0 0-.003.472M59.188 146.04l2.883 1.222.893-2.11q.11-.262.125-.495a1.2 1.2 0 0 0-.048-.436.9.9 0 0 0-.222-.372 1.4 1.4 0 0 0-.463-.297 1.5 1.5 0 0 0-.444-.118 2 2 0 0 0-.414.01 1 1 0 0 0-.395.149q-.188.12-.356.328l-1.246-1.038q.338-.506.785-.81t.953-.409q.51-.104 1.044-.039.538.064 1.101.304.931.394 1.394.907t.607 1.098q.146.588.044 1.208a5.5 5.5 0 0 1-.36 1.237l-.773 1.821 1.39.589-.6 1.416-.565-.162a2.2 2.2 0 0 0-.675-.122 1.5 1.5 0 0 0-.623.123q-.301.126-.576.413a5 5 0 0 0-.582.757l-.261.4-1.336-.565.888-2.097-2.882-1.221zM54.919 149.242l-2.081-1.261 2.022-3.333q-.48.16-.917.152a4.3 4.3 0 0 1-.82-.089 3 3 0 0 1-.723-.248 8 8 0 0 1-.622-.336q-.707-.428-1.134-.862-.429-.434-.547-.938-.119-.505.06-1.114.179-.607.65-1.386l2.118-3.493 2.068 1.254-1.963 3.235a4 4 0 0 0-.357.741 1.2 1.2 0 0 0-.066.601q.05.262.256.495.207.234.573.456.376.23.74.316.36.088.733.012.371-.076.7-.342.329-.267.63-.766l1.771-2.921 2.093 1.268-5.188 8.555zM49.088 139.872a3.04 3.04 0 0 1-1.365.374 3.6 3.6 0 0 1-1.452-.291 5.7 5.7 0 0 1-1.474-.909 5.4 5.4 0 0 1-1.184-1.336 3.4 3.4 0 0 1-.513-1.464q-.073-.749.23-1.482c.202-.489.551-.976 1.037-1.46l4.522 3.755q.236-.283.31-.585.072-.298.024-.599a1.55 1.55 0 0 0-.253-.608 2.9 2.9 0 0 0-.566-.61q-.645-.537-1.115-.631a1.35 1.35 0 0 0-.873.106l-1.363-1.612q.54-.312 1.111-.382a3.6 3.6 0 0 1 1.138.047 4.1 4.1 0 0 1 1.114.409q.552.292 1.09.737.723.603 1.166 1.282.442.682.557 1.38c.078.466.042.937-.1 1.414q-.218.717-.8 1.419-.575.689-1.238 1.044zm-4.02-3.86a1.03 1.03 0 0 0-.025.496q.05.265.248.568.2.304.606.641.372.31.693.446t.605.151.513-.082a1 1 0 0 0 .393-.293l-2.835-2.355q-.124.192-.198.428M39.535 131.145q.42.261.848.329.43.067.896-.093.464-.16.954-.614l2.17-2.014 1.655 1.782-5.216 4.84-1.134-1.221.612-1.287a2.8 2.8 0 0 1-1.018.013 3.5 3.5 0 0 1-.882-.29 3.8 3.8 0 0 1-.741-.476 7 7 0 0 1-.623-.588 3 3 0 0 1-.34-.45 2.5 2.5 0 0 1-.248-.516l1.575-1.463q.014.184.068.365c.035.121.083.241.143.352q.089.167.22.342.128.172.276.327.367.396.786.657zM27.436 124.54l10.624-6.685 1.085 1.722-10.625 6.685zM29.328 111.773q.477-.308.719-.732.24-.419.235-1.001t-.293-1.371a5 5 0 0 0-.426-.905 3.4 3.4 0 0 0-.512-.661 2.3 2.3 0 0 0-.576-.419 2.2 2.2 0 0 0-.614-.209l-.16-2.32c.474.079.915.212 1.324.39q.612.269 1.126.742.514.474.915 1.145.402.671.733 1.581.497 1.364.505 2.453.007 1.088-.383 1.91a3.9 3.9 0 0 1-1.125 1.407q-.735.585-1.71.938a5.9 5.9 0 0 1-1.909.374 3.95 3.95 0 0 1-1.758-.361q-.828-.38-1.525-1.216-.699-.836-1.192-2.202a9 9 0 0 1-.454-1.683 5.2 5.2 0 0 1-.031-1.466q.09-.691.385-1.29a5.7 5.7 0 0 1 .764-1.148l1.35 1.843q-.215.243-.342.563a2.4 2.4 0 0 0-.16.71q-.03.389.036.85.069.459.253.967.3.831.71 1.287.41.457.876.598a2.3 2.3 0 0 0 .999.062 6 6 0 0 0 1.12-.293q.643-.233 1.12-.543M26.578 95.77q.733.149 1.285.587c.368.292.684.674.937 1.147a5.8 5.8 0 0 1 .562 1.643q.185.965.093 1.767a3.6 3.6 0 0 1-.446 1.411 3.2 3.2 0 0 1-.975 1.037q-.621.424-1.515.595t-1.63.007a3.15 3.15 0 0 1-1.288-.601 3.6 3.6 0 0 1-.936-1.147q-.383-.71-.568-1.673a5.7 5.7 0 0 1-.088-1.737 3.6 3.6 0 0 1 .446-1.412 3.06 3.06 0 0 1 .978-1.022q.624-.409 1.52-.582.894-.174 1.626-.022zm.314 5.781q.34-.152.557-.425.216-.275.277-.67.063-.396-.043-.94c-.074-.381-.177-.692-.315-.925a1.35 1.35 0 0 0-.507-.518q-.3-.166-.68-.187a3.4 3.4 0 0 0-.815.062q-.448.083-.786.245a1.6 1.6 0 0 0-.557.425q-.217.267-.277.67-.06.405.05.975.104.546.308.89t.506.519q.302.174.681.186.38.014.812-.068.447-.087.789-.239M21.762 92.305a3.2 3.2 0 0 1-.467-.75 3.8 3.8 0 0 1-.265-.858 6.4 6.4 0 0 1-.101-.893q-.035-.812.112-1.4c.097-.395.27-.716.521-.971q.375-.379 1.01-.578c.424-.133.935-.21 1.542-.237l3.94-.169.103 2.432-3.769.16a3.4 3.4 0 0 0-.814.122q-.344.1-.544.287a1 1 0 0 0-.278.484 2.4 2.4 0 0 0-.061.707q.019.441.127.792.108.35.318.62t.551.405q.34.136.81.115l3.81-.164.105 2.446-7.11.303-.08-1.864 1.265-.424a2.3 2.3 0 0 1-.722-.567zM23.553 78.475l-.322 3.116 2.28.235q.282.03.509-.026.226-.055.403-.173a.9.9 0 0 0 .292-.321q.115-.203.148-.528.026-.255-.018-.46a2 2 0 0 0-.13-.394 1 1 0 0 0-.258-.333 1.5 1.5 0 0 0-.417-.243l.627-1.495q.582.173 1.006.513.423.336.67.791t.341.986q.096.532.033 1.141-.103 1.006-.46 1.599a2.54 2.54 0 0 1-.872.903q-.517.311-1.144.397a5.4 5.4 0 0 1-1.29.017l-1.966-.204-.157 1.5-1.529-.158-.011-.588a2.2 2.2 0 0 0-.081-.68 1.55 1.55 0 0 0-.3-.56 1.8 1.8 0 0 0-.563-.431 5 5 0 0 0-.896-.335l-.457-.133.15-1.444 2.264.233.321-3.113zM22.732 74.86q-.248-1.136.142-2.665a7.2 7.2 0 0 1 .528-1.458q.314-.632.733-1.003.417-.37.953-.484.535-.114 1.17.047l2.427.62a.7.7 0 0 0 .255.013.47.47 0 0 0 .231-.103.9.9 0 0 0 .194-.243 1.5 1.5 0 0 0 .149-.382l.055-.212a.26.26 0 0 0 .007-.138l1.49.38q.036.26.007.546-.03.285-.103.576a3.2 3.2 0 0 1-.363.877q-.24.394-.575.646-.335.254-.752.33-.415.077-.927-.051l-1.945-.496a3 3 0 0 0-.737-.107 1.03 1.03 0 0 0-.915.566q-.149.271-.259.698-.197.773-.081 1.22.114.446.451.679l-.839 1.975q-1.043-.69-1.29-1.827zm3.202 2.099q-.354-.332-.501-.833a3.2 3.2 0 0 1-.1-1.134q.042-.635.24-1.407.218-.854.494-1.394.277-.54.604-.81t.685-.354a1.5 1.5 0 0 1 .731.01l.345.087q.4.102.758.37.357.267.572.726t.252 1.12-.194 1.573a6.3 6.3 0 0 1-.46 1.285 2.9 2.9 0 0 1-.632.866 1.75 1.75 0 0 1-.813.425q-.451.1-1.016-.046-.606-.154-.962-.486zm1.581-1.771a.95.95 0 0 0 .337-.26 1.6 1.6 0 0 0 .263-.448 5 5 0 0 0 .18-.556q.12-.484.128-.819a1.9 1.9 0 0 0-.063-.558.9.9 0 0 0-.197-.352.6.6 0 0 0-.28-.166l-.166-.042a.45.45 0 0 0-.296.012.64.64 0 0 0-.256.23 2.3 2.3 0 0 0-.245.473q-.121.3-.25.81a4 4 0 0 0-.105.589q-.03.284.015.519.044.231.176.382.13.151.364.21a.63.63 0 0 0 .403-.022zM26.463 67.1a3.1 3.1 0 0 1-.743-1.217 3.7 3.7 0 0 1-.151-1.479q.07-.8.429-1.672.581-1.406 1.528-2.109c.632-.469 1.372-.668 2.229-.602l-.55 2.07a2 2 0 0 0-.48.03 1 1 0 0 0-.418.19q-.19.146-.365.395a3.7 3.7 0 0 0-.348.671 3 3 0 0 0-.237.925 1.4 1.4 0 0 0 .132.724q.158.31.467.526.312.214.719.381.42.174.785.241t.697-.042q.33-.108.605-.419a3 3 0 0 0 .488-.823q.173-.422.229-.723.056-.299.021-.538a1 1 0 0 0-.16-.429 2 2 0 0 0-.32-.364l1.075-1.851q.978.835 1.152 2t-.409 2.571a5.7 5.7 0 0 1-.875 1.486 3.7 3.7 0 0 1-1.151.94 3.2 3.2 0 0 1-1.387.337q-.751.012-1.594-.337t-1.365-.888zM33.3 52.95l-1.581 2.704 1.978 1.157q.244.145.476.188.23.043.44.01a.9.9 0 0 0 .397-.172q.188-.138.352-.421a1.5 1.5 0 0 0 .22-.837 1 1 0 0 0-.098-.41 1.5 1.5 0 0 0-.279-.396l1.189-1.103q.457.4.705.882.246.482.282.997.035.516-.098 1.04-.133.525-.442 1.051-.51.873-1.08 1.264-.568.394-1.169.46-.601.069-1.205-.111a5.5 5.5 0 0 1-1.18-.517l-1.707-.998-.763 1.302-1.327-.777.233-.54q.163-.335.21-.654a1.5 1.5 0 0 0-.041-.634 1.8 1.8 0 0 0-.336-.625 5.4 5.4 0 0 0-.677-.677l-.363-.312.735-1.253 1.965 1.149 1.581-2.704 1.584.927zM43.61 48.573q-.766.842-1.543 1.317-.779.475-1.55.572A3 3 0 0 1 39 50.256q-.745-.301-1.47-.961l-4.085-3.717 1.656-1.822 4.242 3.86q.346.315.68.456t.7.078q.363-.064.717-.281a3.5 3.5 0 0 0 .725-.63 3.6 3.6 0 0 0 .559-.781q.195-.38.21-.74a1.4 1.4 0 0 0-.142-.69 2.2 2.2 0 0 0-.509-.646l-4.242-3.859 1.638-1.8 4.085 3.717q.725.66 1.093 1.379a3.1 3.1 0 0 1 .352 1.484q-.013.766-.414 1.585c-.268.547-.66 1.108-1.184 1.683zM49.26 39.923a2.7 2.7 0 0 0-.438.136 10 10 0 0 0-.603.26 18 18 0 0 0-.713.35q-.434.188-.92.39a4.2 4.2 0 0 1-.965.277 2.35 2.35 0 0 1-.904-.019q-.423-.094-.758-.504-.375-.465-.428-.99a2.14 2.14 0 0 1 .175-1.058q.228-.533.664-1.044.437-.51 1.013-.977a6 6 0 0 1 1.037-.676 4.5 4.5 0 0 1 1.14-.411q.581-.122 1.146-.059.567.063 1.046.387l-1.204 1.453q-.36-.15-.776-.029-.417.12-.904.513-.19.151-.379.336-.189.183-.325.355-.136.174-.195.36-.06.184.046.32.062.076.251.06.19-.017.458-.123c.18-.07.38-.163.606-.27q.337-.163.71-.357.435-.187.922-.388.487-.2.945-.29.459-.089.867-.005.407.082.712.46.387.475.427 1 .041.524-.182 1.064-.225.54-.666 1.064-.442.525-.987.965a6.4 6.4 0 0 1-1.12.743q-.557.285-1.115.4a3.1 3.1 0 0 1-1.107.026 2.9 2.9 0 0 1-1.06-.402l1.247-1.49a.7.7 0 0 0 .366.133q.196.015.42-.048c.15-.043.307-.11.473-.21q.247-.146.503-.353.189-.151.374-.33c.123-.117.232-.238.326-.355a1 1 0 0 0 .18-.33.3.3 0 0 0-.066-.285q-.063-.075-.238-.046zM55.92 37.897l-4.286-8.36 1.696-.87 8 3.128-2.934-5.724 1.849-.947 4.286 8.36-2.204 1.129-7.3-2.944 2.715 5.293-1.825.934zM71.935 29.028a3 3 0 0 1-.421 1.35 3.6 3.6 0 0 1-1.019 1.075 5.7 5.7 0 0 1-1.56.765q-.935.304-1.739.314a3.6 3.6 0 0 1-1.457-.265 3.1 3.1 0 0 1-1.149-.838q-.498-.562-.78-1.428-.283-.864-.213-1.615.068-.749.433-1.354a3.6 3.6 0 0 1 1.019-1.075q.654-.468 1.588-.774a5.7 5.7 0 0 1 1.713-.304 3.6 3.6 0 0 1 1.455.264c.435.182.813.465 1.136.841q.485.568.768 1.435.283.865.225 1.611zm-5.694 1.037q.193.318.493.497.298.18.698.19.4.012.929-.16.556-.18.877-.43.323-.248.45-.566.128-.319.102-.698a3.4 3.4 0 0 0-.164-.8 3.3 3.3 0 0 0-.343-.749 1.54 1.54 0 0 0-.493-.497 1.35 1.35 0 0 0-.699-.19q-.405-.01-.962.17-.527.173-.843.42-.318.245-.451.566-.135.32-.101.698t.17.797q.142.434.337.752M71.197 23.553l2.317-.294 3.044 5.01 1.533-4.9 1.793-.227 2.688 4.35 1.7-5.595 2.328-.295-2.226 7.454-2.824.356-2.29-3.926-1.254 4.376-2.81.357-4.001-6.667zM88.188 19.776l2.616.09-.775 6.325-1.492-.05zm.002 7.285q.439-.303 1.05-.286.651.023 1.062.358.41.335.385.974-.022.642-.453.945-.43.306-1.086.282-.61-.022-1.028-.355-.413-.335-.393-.975.022-.64.46-.944zM101.567 19.71l-2.425 12.317-1.998-.394 2.424-12.317z"/><path fill="#00CE44" d="M101.352 48.835C79.65 40.982 55.69 52.209 47.837 73.91s3.374 45.662 25.076 53.515 45.662-3.375 53.515-25.077c7.853-21.701-3.374-45.662-25.076-53.515m-22.27 58.42c4.446-10.561-.511-22.726-11.073-27.172 10.56 4.445 22.724-.512 27.17-11.074-4.446 10.562.514 22.727 11.073 27.172-10.56-4.445-22.726.512-27.172 11.073z"/></svg>