<svg width="44" height="45" viewBox="0 0 44 45" fill="none" xmlns="http://www.w3.org/2000/svg">
<path d="M21.8841 2.04396C21.7881 2.04439 21.6912 2.06029 21.599 2.09177L3.2982 8.46152C2.91 8.59617 2.66689 8.9839 2.7176 9.39222L5.61034 33.1072C5.64444 33.3878 5.81027 33.6351 6.05945 33.7698L21.4897 42.1563C21.6191 42.2271 21.763 42.2622 21.9063 42.2622C22.0506 42.2622 22.1961 42.2263 22.3264 42.1546L37.8352 33.6536C38.0818 33.5181 38.2494 33.2717 38.2826 32.9927L41.1736 9.27951C41.2243 8.86944 40.9788 8.4783 40.5862 8.3454L22.1676 2.08836C22.0758 2.05775 21.9802 2.04352 21.8841 2.04396ZM21.9456 6.41398L33.3117 30.8957H29.4319L27.0002 25.6564H16.891L14.4593 30.8957H10.5796L21.9456 6.41398ZM21.9456 14.7203L18.5184 22.1522H25.3728L21.9456 14.7203Z" fill="#00CE44"/>
</svg>
