<svg width="135" height="70" viewBox="0 0 135 70" fill="none" xmlns="http://www.w3.org/2000/svg">
<path d="M72.2546 7.94838C72.1664 8.01598 70.6099 8.88296 70.6099 10.8107C70.6099 13.0405 72.5904 13.8294 72.6498 13.8489C72.6407 13.897 72.335 14.9292 71.6054 15.981C70.9549 16.9066 70.2752 17.8307 69.2416 17.8307C68.208 17.8307 67.942 17.2372 66.7485 17.2372C65.5857 17.2372 65.1721 17.8502 64.2266 17.8502C63.2811 17.8502 62.6215 16.9937 61.8629 15.942C60.9843 14.7069 60.2744 12.7881 60.2744 10.967C60.2744 8.04603 62.1958 6.49691 64.0868 6.49691C65.0917 6.49691 65.9292 7.14903 66.5601 7.14903C67.1606 7.14903 68.0969 6.45783 69.2402 6.45783C69.6733 6.45783 71.2299 6.49691 72.2546 7.94838ZM68.6974 5.22125C69.1701 4.6668 69.5045 3.89749 69.5045 3.12818C69.5045 3.02151 69.4956 2.91332 69.4758 2.82617C68.7065 2.85471 67.7915 3.33253 67.2395 3.96511C66.8064 4.45194 66.402 5.22125 66.402 6.00108C66.402 6.11827 66.4218 6.23547 66.4309 6.27302C66.4795 6.28205 66.5587 6.29257 66.6376 6.29257C67.3277 6.29257 68.1957 5.83579 68.6974 5.22125Z" fill="#FAFAFA"/>
<path d="M22.5791 1.90405C20.4486 3.48606 19.8633 6.39311 19.8633 6.39311C19.8633 6.39311 22.7324 6.73482 24.8633 5.15294C26.9939 3.57054 27.579 0.663919 27.579 0.663919C27.579 0.663919 24.7099 0.322189 22.5791 1.90405Z" fill="#FAFAFA"/>
<path d="M17.4914 0C17.4914 0 15.2379 1.86584 14.8426 4.531C14.4475 7.19576 16.0602 9.65039 16.0602 9.65039C16.0602 9.65039 18.3137 7.78456 18.7089 5.11978C19.1038 2.45449 17.4914 0 17.4914 0Z" fill="#FAFAFA"/>
<path d="M21.1083 7.62986C18.5135 8.0457 16.7041 10.3658 16.7041 10.3658C16.7041 10.3658 19.1021 12.0115 21.697 11.5953C24.2918 11.1794 26.1011 8.85973 26.1011 8.85973C26.1011 8.85973 23.7032 7.21399 21.1083 7.62986Z" fill="#FAFAFA"/>
<path d="M12.1329 4.68555C12.1329 4.68555 9.89886 6.87229 9.70853 9.7389C9.51832 12.6051 11.4438 15.066 11.4438 15.066C11.4438 15.066 13.6777 12.8796 13.8684 10.0132C14.0586 7.14693 12.1329 4.68555 12.1329 4.68555Z" fill="#FAFAFA"/>
<path d="M16.6355 12.462C13.9134 13.1393 12.1904 15.7677 12.1904 15.7677C12.1904 15.7677 14.8808 17.298 17.6029 16.6207C20.325 15.9434 22.0484 13.3151 22.0484 13.3151C22.0484 13.3151 19.358 11.7848 16.6355 12.462Z" fill="#FAFAFA"/>
<path d="M10.1256 16.1717C9.86326 13.1352 7.44637 10.8828 7.44637 10.8828C7.44637 10.8828 5.45398 13.5533 5.71616 16.5902C5.97808 19.6266 8.39537 21.8791 8.39537 21.8791C8.39537 21.8791 10.3875 19.2081 10.1256 16.1717Z" fill="#FAFAFA"/>
<path d="M13.4243 18.2693C10.6769 19.4413 9.29199 22.4884 9.29199 22.4884C9.29199 22.4884 12.3621 23.6357 15.1093 22.464C17.8571 21.2921 19.2417 18.2449 19.2417 18.2449C19.2417 18.2449 16.1719 17.0977 13.4243 18.2693Z" fill="#FAFAFA"/>
<path d="M9.14307 51.9998C6.51218 50.5932 3.35059 51.4681 3.35059 51.4681C3.35059 51.4681 4.45457 54.6239 7.08534 56.031C9.71625 57.4376 12.8773 56.5629 12.8773 56.5629C12.8773 56.5629 11.7735 53.4066 9.14307 51.9998Z" fill="#FAFAFA"/>
<path d="M12.6569 50.2804C12.1214 53.2822 13.8645 56.1162 13.8645 56.1162C13.8645 56.1162 16.4757 54.0834 17.0112 51.0819C17.5467 48.0801 15.8036 45.2461 15.8036 45.2461C15.8036 45.2461 13.1925 47.2784 12.6569 50.2804Z" fill="#FAFAFA"/>
<path d="M14.0213 59.1599C11.4993 58.3795 8.88086 59.6774 8.88086 59.6774C8.88086 59.6774 10.3516 62.2409 12.874 63.021C15.3963 63.8014 18.0144 62.5032 18.0144 62.5032C18.0144 62.5032 16.5436 59.9403 14.0213 59.1599Z" fill="#FAFAFA"/>
<path d="M16.8116 57.067C16.8268 59.7735 18.804 61.9479 18.804 61.9479C18.804 61.9479 20.7558 59.7344 20.7402 57.0279C20.7251 54.3211 18.748 52.1465 18.748 52.1465C18.748 52.1465 16.796 54.3605 16.8116 57.067Z" fill="#FAFAFA"/>
<path d="M19.2304 64.137C16.9972 63.8563 14.9766 65.3374 14.9766 65.3374C14.9766 65.3374 16.577 67.2731 18.8099 67.5536C21.0431 67.8343 23.0637 66.3534 23.0637 66.3534C23.0637 66.3534 21.4637 64.4176 19.2304 64.137Z" fill="#FAFAFA"/>
<path d="M21.2833 61.9611C21.6785 64.2337 23.6499 65.7678 23.6499 65.7678C23.6499 65.7678 24.98 63.6162 24.5845 61.3433C24.1892 59.0704 22.2182 57.5371 22.2182 57.5371C22.2182 57.5371 20.8881 59.6882 21.2833 61.9611Z" fill="#FAFAFA"/>
<path d="M25.1336 67.4278C23.4521 67.4223 22.0801 68.7042 22.0801 68.7042C22.0801 68.7042 23.4347 69.9944 25.1163 69.9996C26.7984 70.0048 28.1703 68.7235 28.1703 68.7235C28.1703 68.7235 26.8157 67.4332 25.1336 67.4278Z" fill="#FAFAFA"/>
<path d="M26.4706 65.6296C26.9601 67.2792 28.5556 68.2376 28.5556 68.2376C28.5556 68.2376 29.3573 66.5211 28.8682 64.8717C28.3786 63.222 26.7834 62.2637 26.7834 62.2637C26.7834 62.2637 25.9815 63.9802 26.4706 65.6296Z" fill="#FAFAFA"/>
<path d="M2.9959 19.0488C2.9959 19.0488 1.49671 22.2915 2.4323 25.3982C3.368 28.5047 6.38364 30.2987 6.38364 30.2987C6.38364 30.2987 7.88248 27.0558 6.94714 23.9495C6.01156 20.8429 2.9959 19.0488 2.9959 19.0488Z" fill="#FAFAFA"/>
<path d="M10.8504 25.379C8.23582 27.2318 7.45312 30.7274 7.45312 30.7274C7.45312 30.7274 10.9101 31.2192 13.5247 29.3663C16.1391 27.514 16.9214 24.0181 16.9214 24.0181C16.9214 24.0181 13.4649 23.5263 10.8504 25.379Z" fill="#FAFAFA"/>
<path d="M0.446309 29.7656C0.446309 29.7656 -0.245093 33.2808 1.39633 36.0595C3.03736 38.8381 6.38939 39.8279 6.38939 39.8279C6.38939 39.8279 7.08041 36.3125 5.43938 33.534C3.79808 30.7549 0.446309 29.7656 0.446309 29.7656Z" fill="#FAFAFA"/>
<path d="M15.1428 31.1211C15.1428 31.1211 11.6699 31.5032 9.56737 33.9486C7.46484 36.394 7.52951 39.977 7.52951 39.977C7.52951 39.977 11.0024 39.5951 13.105 37.1492C15.2072 34.7038 15.1428 31.1211 15.1428 31.1211Z" fill="#FAFAFA"/>
<path d="M0 41.4914C0 41.4914 0.442832 45.0442 2.86761 47.1329C5.29212 49.2212 8.78053 49.0548 8.78053 49.0548C8.78053 49.0548 8.33784 45.5016 5.91293 43.4134C3.48853 41.3246 0 41.4914 0 41.4914Z" fill="#FAFAFA"/>
<path d="M14.3631 37.9395C14.3631 37.9395 11.1884 39.4438 9.95825 42.4488C8.72833 45.4541 9.90858 48.8217 9.90858 48.8217C9.90858 48.8217 13.0833 47.3173 14.3134 44.3123C15.5432 41.3073 14.3631 37.9395 14.3631 37.9395Z" fill="#FAFAFA"/>
<path d="M112.089 1.90405C114.219 3.48606 114.805 6.39311 114.805 6.39311C114.805 6.39311 111.936 6.73482 109.805 5.15294C107.674 3.57054 107.089 0.663919 107.089 0.663919C107.089 0.663919 109.958 0.322189 112.089 1.90405Z" fill="#FAFAFA"/>
<path d="M117.176 0C117.176 0 119.43 1.86584 119.825 4.531C120.22 7.19576 118.608 9.65039 118.608 9.65039C118.608 9.65039 116.354 7.78456 115.959 5.11978C115.564 2.45449 117.176 0 117.176 0Z" fill="#FAFAFA"/>
<path d="M113.559 7.62986C116.154 8.0457 117.964 10.3658 117.964 10.3658C117.964 10.3658 115.565 12.0115 112.971 11.5953C110.376 11.1794 108.566 8.85973 108.566 8.85973C108.566 8.85973 110.965 7.21399 113.559 7.62986Z" fill="#FAFAFA"/>
<path d="M122.535 4.68555C122.535 4.68555 124.769 6.87229 124.959 9.7389C125.15 12.6051 123.224 15.066 123.224 15.066C123.224 15.066 120.99 12.8796 120.799 10.0132C120.609 7.14693 122.535 4.68555 122.535 4.68555Z" fill="#FAFAFA"/>
<path d="M118.032 12.462C120.754 13.1393 122.477 15.7677 122.477 15.7677C122.477 15.7677 119.787 17.298 117.065 16.6207C114.343 15.9434 112.619 13.3151 112.619 13.3151C112.619 13.3151 115.31 11.7848 118.032 12.462Z" fill="#FAFAFA"/>
<path d="M124.542 16.1717C124.804 13.1352 127.221 10.8828 127.221 10.8828C127.221 10.8828 129.214 13.5533 128.952 16.5902C128.69 19.6266 126.272 21.8791 126.272 21.8791C126.272 21.8791 124.28 19.2081 124.542 16.1717Z" fill="#FAFAFA"/>
<path d="M121.243 18.2693C123.991 19.4413 125.375 22.4884 125.375 22.4884C125.375 22.4884 122.305 23.6357 119.558 22.464C116.81 21.2921 115.426 18.2449 115.426 18.2449C115.426 18.2449 118.495 17.0977 121.243 18.2693Z" fill="#FAFAFA"/>
<path d="M125.525 51.9998C128.156 50.5932 131.318 51.4681 131.318 51.4681C131.318 51.4681 130.214 54.6239 127.583 56.031C124.952 57.4376 121.791 56.5629 121.791 56.5629C121.791 56.5629 122.895 53.4066 125.525 51.9998Z" fill="#FAFAFA"/>
<path d="M122.011 50.2804C122.547 53.2822 120.804 56.1162 120.804 56.1162C120.804 56.1162 118.192 54.0834 117.657 51.0819C117.121 48.0801 118.865 45.2461 118.865 45.2461C118.865 45.2461 121.475 47.2784 122.011 50.2804Z" fill="#FAFAFA"/>
<path d="M120.647 59.1599C123.169 58.3795 125.788 59.6774 125.788 59.6774C125.788 59.6774 124.317 62.2409 121.795 63.021C119.272 63.8014 116.654 62.5032 116.654 62.5032C116.654 62.5032 118.125 59.9403 120.647 59.1599Z" fill="#FAFAFA"/>
<path d="M117.857 57.067C117.841 59.7735 115.864 61.9479 115.864 61.9479C115.864 61.9479 113.912 59.7344 113.928 57.0279C113.943 54.3211 115.92 52.1465 115.92 52.1465C115.92 52.1465 117.872 54.3605 117.857 57.067Z" fill="#FAFAFA"/>
<path d="M115.437 64.137C117.67 63.8563 119.691 65.3374 119.691 65.3374C119.691 65.3374 118.09 67.2731 115.857 67.5536C113.624 67.8343 111.604 66.3534 111.604 66.3534C111.604 66.3534 113.203 64.4176 115.437 64.137Z" fill="#FAFAFA"/>
<path d="M113.384 61.9611C112.989 64.2337 111.018 65.7678 111.018 65.7678C111.018 65.7678 109.688 63.6162 110.083 61.3433C110.479 59.0704 112.449 57.5371 112.449 57.5371C112.449 57.5371 113.78 59.6882 113.384 61.9611Z" fill="#FAFAFA"/>
<path d="M109.534 67.4278C111.215 67.4223 112.587 68.7042 112.587 68.7042C112.587 68.7042 111.233 69.9944 109.551 69.9996C107.869 70.0048 106.497 68.7235 106.497 68.7235C106.497 68.7235 107.851 67.4332 109.534 67.4278Z" fill="#FAFAFA"/>
<path d="M108.197 65.6296C107.708 67.2792 106.112 68.2376 106.112 68.2376C106.112 68.2376 105.31 66.5211 105.8 64.8717C106.289 63.222 107.885 62.2637 107.885 62.2637C107.885 62.2637 108.687 63.9802 108.197 65.6296Z" fill="#FAFAFA"/>
<path d="M131.672 19.0488C131.672 19.0488 133.172 22.2915 132.236 25.3982C131.3 28.5047 128.285 30.2987 128.285 30.2987C128.285 30.2987 126.786 27.0558 127.721 23.9495C128.657 20.8429 131.672 19.0488 131.672 19.0488Z" fill="#FAFAFA"/>
<path d="M123.818 25.379C126.433 27.2318 127.215 30.7274 127.215 30.7274C127.215 30.7274 123.758 31.2192 121.144 29.3663C118.529 27.514 117.747 24.0181 117.747 24.0181C117.747 24.0181 121.204 23.5263 123.818 25.379Z" fill="#FAFAFA"/>
<path d="M134.221 29.7656C134.221 29.7656 134.913 33.2808 133.271 36.0595C131.63 38.8381 128.278 39.8279 128.278 39.8279C128.278 39.8279 127.587 36.3125 129.228 33.534C130.87 30.7549 134.221 29.7656 134.221 29.7656Z" fill="#FAFAFA"/>
<path d="M119.525 31.1211C119.525 31.1211 122.998 31.5032 125.1 33.9486C127.203 36.394 127.138 39.977 127.138 39.977C127.138 39.977 123.665 39.5951 121.562 37.1492C119.46 34.7038 119.525 31.1211 119.525 31.1211Z" fill="#FAFAFA"/>
<path d="M134.667 41.4914C134.667 41.4914 134.225 45.0442 131.8 47.1329C129.375 49.2212 125.887 49.0548 125.887 49.0548C125.887 49.0548 126.33 45.5016 128.754 43.4134C131.179 41.3246 134.667 41.4914 134.667 41.4914Z" fill="#FAFAFA"/>
<path d="M120.304 37.9395C120.304 37.9395 123.479 39.4438 124.709 42.4488C125.939 45.4541 124.759 48.8217 124.759 48.8217C124.759 48.8217 121.584 47.3173 120.354 44.3123C119.124 41.3073 120.304 37.9395 120.304 37.9395Z" fill="#FAFAFA"/>
<path d="M24.9668 47.5695V39.372H30.3179V40.8179H26.5152V42.5713H29.6348V44.0172H26.5152V46.1235H30.3179V47.5695H24.9668ZM34.1758 47.7403C33.6103 47.7403 33.115 47.5979 32.69 47.3133C32.2648 47.0287 31.9329 46.6416 31.6938 46.152C31.4584 45.6624 31.3409 45.1102 31.3409 44.4954C31.3409 43.8692 31.4604 43.3133 31.6995 42.8274C31.9423 42.3379 32.2819 41.9527 32.7185 41.6718C33.1549 41.3909 33.6672 41.2506 34.2555 41.2506C34.8399 41.2506 35.3315 41.3929 35.7299 41.6775C36.1284 41.9621 36.4301 42.3492 36.6351 42.8388C36.84 43.3284 36.9425 43.8806 36.9425 44.4954C36.9425 45.1102 36.838 45.6624 36.6294 46.152C36.4245 46.6416 36.1171 47.0287 35.7072 47.3133C35.2973 47.5979 34.7867 47.7403 34.1758 47.7403ZM34.4263 46.3626C34.7716 46.3626 35.0468 46.2849 35.2518 46.1292C35.4604 45.9735 35.6104 45.7555 35.7015 45.4745C35.7926 45.1936 35.8381 44.8674 35.8381 44.4954C35.8381 44.1234 35.7926 43.7972 35.7015 43.5163C35.6104 43.2353 35.4641 43.0173 35.2631 42.8616C35.0656 42.7059 34.8057 42.6282 34.4832 42.6282C34.1377 42.6282 33.8531 42.7136 33.6293 42.8844C33.4091 43.0514 33.246 43.2772 33.1398 43.5618C33.0333 43.8427 32.9804 44.1538 32.9804 44.4954C32.9804 44.8407 33.0316 45.1558 33.1341 45.4404C33.2365 45.7213 33.394 45.9451 33.6066 46.1121C33.8189 46.2792 34.0922 46.3626 34.4263 46.3626ZM35.8381 47.5695V43.3569H35.6446V39.372H37.2044V47.5695H35.8381ZM38.9122 40.5674V39.2012H40.4606V40.5674H38.9122ZM38.9122 47.5695V41.4213H40.4606V47.5695H38.9122ZM45.856 47.5695C45.431 47.6492 45.0135 47.6833 44.6036 47.6719C44.1975 47.6643 43.8331 47.5942 43.5106 47.4613C43.1918 47.3247 42.949 47.1064 42.782 46.8066C42.6302 46.5257 42.5505 46.2411 42.5429 45.9527C42.5352 45.6604 42.5315 45.3303 42.5315 44.9622V39.7135H44.0799V44.8711C44.0799 45.1102 44.0819 45.3265 44.0856 45.5201C44.0933 45.7099 44.1331 45.8617 44.2051 45.9755C44.3418 46.1918 44.5601 46.3094 44.8598 46.3285C45.1595 46.3475 45.4917 46.3322 45.856 46.2829V47.5695ZM41.484 42.6168V41.4213H45.856V42.6168H41.484ZM49.6592 47.7403C49.0405 47.7403 48.4979 47.6016 48.0311 47.3247C47.5643 47.0477 47.2 46.6663 46.9381 46.1804C46.68 45.6909 46.551 45.1293 46.551 44.4954C46.551 43.8541 46.6837 43.2905 46.9495 42.8047C47.2151 42.3151 47.5814 41.9337 48.0482 41.6604C48.515 41.3872 49.0518 41.2506 49.6592 41.2506C50.2777 41.2506 50.8205 41.3892 51.2873 41.6661C51.7578 41.9431 52.1242 42.3265 52.386 42.816C52.6479 43.3019 52.7788 43.8615 52.7788 44.4954C52.7788 45.133 52.6459 45.6966 52.3803 46.1861C52.1185 46.672 51.7522 47.0534 51.2816 47.3304C50.8148 47.6036 50.274 47.7403 49.6592 47.7403ZM49.6592 46.2943C50.1562 46.2943 50.5262 46.1272 50.7693 45.7933C51.0158 45.4555 51.1393 45.0228 51.1393 44.4954C51.1393 43.9489 51.0141 43.5125 50.7636 43.1861C50.5168 42.8596 50.1488 42.6965 49.6592 42.6965C49.3214 42.6965 49.0444 42.7725 48.8281 42.9242C48.6118 43.0759 48.4504 43.2866 48.3442 43.5561C48.2417 43.8256 48.1905 44.1387 48.1905 44.4954C48.1905 45.0456 48.3138 45.484 48.5605 45.8104C48.811 46.1329 49.1771 46.2943 49.6592 46.2943ZM54.0307 47.5695V41.4213H55.397V42.9242L55.249 42.7307C55.3286 42.518 55.4348 42.3245 55.5677 42.15C55.7004 41.9755 55.8638 41.8312 56.0573 41.7174C56.2053 41.6263 56.3665 41.556 56.5412 41.5067C56.7157 41.4535 56.8959 41.4213 57.082 41.4099C57.2679 41.3948 57.4538 41.3986 57.6399 41.4213V42.8673C57.4691 42.8141 57.2699 42.797 57.0421 42.816C56.8182 42.8311 56.6152 42.8824 56.433 42.9698C56.2509 43.0532 56.0972 43.1653 55.9719 43.3056C55.8467 43.4422 55.7516 43.6054 55.6873 43.7952C55.6227 43.9811 55.5905 44.1917 55.5905 44.4271V47.5695H54.0307ZM58.9504 42.4574L59.0415 41.8084C59.2237 41.8235 59.3717 41.7951 59.4856 41.723C59.5994 41.6471 59.6771 41.5409 59.719 41.4043C59.7645 41.2639 59.7739 41.1025 59.7474 40.9204H58.9504V39.372H60.4988V40.9204C60.4988 41.4669 60.3716 41.8805 60.1174 42.1614C59.863 42.4423 59.4742 42.5408 58.9504 42.4574ZM63.6823 47.7403C62.9081 47.7403 62.2819 47.5658 61.8037 47.2165C61.3292 46.8636 61.0409 46.3663 60.9384 45.725L62.521 45.4859C62.5853 45.7743 62.7277 46.0003 62.9479 46.1634C63.1717 46.3265 63.4546 46.4082 63.7962 46.4082C64.0768 46.4082 64.2932 46.3549 64.4451 46.2488C64.5968 46.1386 64.6728 45.9869 64.6728 45.7933C64.6728 45.6718 64.6424 45.575 64.5817 45.503C64.5209 45.427 64.3842 45.353 64.1719 45.281C63.963 45.209 63.6368 45.1139 63.1927 44.9964C62.6918 44.8674 62.2913 44.7231 61.9916 44.5637C61.6916 44.4043 61.4753 44.2145 61.3426 43.9944C61.2097 43.7704 61.1434 43.5012 61.1434 43.1861C61.1434 42.7913 61.2438 42.4497 61.4451 42.1614C61.6461 41.8691 61.929 41.6453 62.2933 41.4896C62.6613 41.3303 63.094 41.2506 63.5912 41.2506C64.0731 41.2506 64.5001 41.3246 64.8721 41.4726C65.2438 41.6206 65.5438 41.8312 65.7715 42.1045C66.0029 42.3777 66.1453 42.7002 66.1985 43.0722L64.6159 43.3569C64.5892 43.1291 64.4907 42.949 64.3199 42.816C64.1491 42.6831 63.9174 42.6054 63.6254 42.5826C63.3407 42.5636 63.1111 42.6017 62.9366 42.6965C62.7658 42.7913 62.6804 42.9279 62.6804 43.1064C62.6804 43.2126 62.7163 43.3019 62.7886 43.3739C62.8643 43.446 63.018 43.52 63.2497 43.596C63.4848 43.6719 63.8417 43.7704 64.3199 43.892C64.7867 44.0135 65.1604 44.1558 65.4414 44.3189C65.726 44.4783 65.9327 44.6719 66.0619 44.8996C66.1908 45.1236 66.2554 45.3949 66.2554 45.7136C66.2554 46.3436 66.0277 46.8388 65.5723 47.1994C65.1169 47.5601 64.4867 47.7403 63.6823 47.7403ZM73.3037 47.7403C72.484 47.7403 71.7761 47.5618 71.1803 47.2051C70.5883 46.8485 70.1309 46.3493 69.8084 45.708C69.4896 45.0667 69.3302 44.3209 69.3302 43.4707C69.3302 42.6205 69.4896 41.8748 69.8084 41.2335C70.1309 40.5922 70.5883 40.0929 71.1803 39.7363C71.7761 39.3796 72.484 39.2012 73.3037 39.2012C74.2447 39.2012 75.0343 39.4346 75.6719 39.9014C76.3132 40.3682 76.7649 41.0001 77.0267 41.7971L75.4669 42.2297C75.315 41.7325 75.0588 41.3473 74.6984 41.0741C74.3378 40.7971 73.873 40.6585 73.3037 40.6585C72.7837 40.6585 72.3491 40.7743 72.0001 41.0058C71.6546 41.2372 71.3947 41.5636 71.2202 41.9849C71.0454 42.4062 70.9583 42.9014 70.9583 43.4707C70.9583 44.04 71.0454 44.5352 71.2202 44.9565C71.3947 45.3778 71.6546 45.7042 72.0001 45.9357C72.3491 46.1671 72.7837 46.2829 73.3037 46.2829C73.873 46.2829 74.3378 46.1443 74.6984 45.8673C75.0588 45.5904 75.315 45.205 75.4669 44.7117L77.0267 45.1444C76.7649 45.9414 76.3132 46.5732 75.6719 47.04C75.0343 47.5069 74.2447 47.7403 73.3037 47.7403ZM82.4699 47.5695V44.6662C82.4699 44.5258 82.4622 44.3474 82.4472 44.1311C82.4321 43.911 82.3845 43.6907 82.3048 43.4707C82.2251 43.2507 82.0942 43.0665 81.912 42.9185C81.7336 42.7705 81.4794 42.6965 81.1492 42.6965C81.0163 42.6965 80.874 42.7173 80.7223 42.7591C80.5705 42.801 80.4282 42.8824 80.2953 43.0039C80.1624 43.1215 80.0525 43.2962 79.9651 43.5276C79.8817 43.7591 79.8399 44.0665 79.8399 44.4499L78.9518 44.0286C78.9518 43.5427 79.0506 43.0873 79.2479 42.6623C79.4451 42.2374 79.7411 41.8938 80.1359 41.632C80.5344 41.3701 81.0354 41.2392 81.6388 41.2392C82.1207 41.2392 82.5135 41.3208 82.8172 41.484C83.1209 41.6471 83.356 41.854 83.5231 42.1045C83.6939 42.3549 83.8154 42.6168 83.8874 42.8901C83.9594 43.1596 84.0032 43.4061 84.0183 43.6301C84.0334 43.8541 84.0411 44.0172 84.0411 44.1197V47.5695H82.4699ZM78.2687 47.5695V39.372H79.6464V43.5846H79.8399V47.5695H78.2687ZM88.2849 47.7403C87.6664 47.7403 87.1236 47.6016 86.6568 47.3247C86.19 47.0477 85.8256 46.6663 85.5638 46.1804C85.3059 45.6909 85.1767 45.1293 85.1767 44.4954C85.1767 43.8541 85.3096 43.2905 85.5752 42.8047C85.841 42.3151 86.2071 41.9337 86.6739 41.6604C87.1407 41.3872 87.6777 41.2506 88.2849 41.2506C88.9037 41.2506 89.4462 41.3892 89.913 41.6661C90.3838 41.9431 90.7498 42.3265 91.0117 42.816C91.2736 43.3019 91.4045 43.8615 91.4045 44.4954C91.4045 45.133 91.2718 45.6966 91.006 46.1861C90.7441 46.672 90.3781 47.0534 89.9073 47.3304C89.4405 47.6036 88.8997 47.7403 88.2849 47.7403ZM88.2849 46.2943C88.7821 46.2943 89.1522 46.1272 89.395 45.7933C89.6417 45.4555 89.765 45.0228 89.765 44.4954C89.765 43.9489 89.6397 43.5125 89.3893 43.1861C89.1427 42.8596 88.7745 42.6965 88.2849 42.6965C87.9473 42.6965 87.6701 42.7725 87.4538 42.9242C87.2374 43.0759 87.0763 43.2866 86.9699 43.5561C86.8674 43.8256 86.8162 44.1387 86.8162 44.4954C86.8162 45.0456 86.9397 45.484 87.1862 45.8104C87.4367 46.1329 87.803 46.2943 88.2849 46.2943ZM92.7702 40.5674V39.2012H94.3186V40.5674H92.7702ZM92.7702 47.5695V41.4213H94.3186V47.5695H92.7702ZM98.7349 47.7403C98.0974 47.7403 97.5509 47.5979 97.0954 47.3133C96.64 47.0287 96.291 46.6416 96.048 46.152C95.8052 45.6624 95.6837 45.1102 95.6837 44.4954C95.6837 43.8729 95.8089 43.317 96.0594 42.8274C96.3138 42.3379 96.6705 41.9527 97.1296 41.6718C97.589 41.3909 98.1315 41.2506 98.7577 41.2506C99.4827 41.2506 100.09 41.4347 100.579 41.8027C101.073 42.1671 101.388 42.6661 101.524 43.2999L99.9759 43.7098C99.8849 43.391 99.7255 43.1425 99.4978 42.9641C99.274 42.7856 99.0196 42.6965 98.7349 42.6965C98.4087 42.6965 98.1412 42.7762 97.9323 42.9356C97.7236 43.0913 97.5699 43.3056 97.4712 43.5789C97.3727 43.8484 97.3232 44.1538 97.3232 44.4954C97.3232 45.0305 97.441 45.4651 97.6761 45.799C97.9152 46.1292 98.2681 46.2943 98.7349 46.2943C99.0842 46.2943 99.3497 46.2146 99.5319 46.0552C99.7141 45.8958 99.8507 45.6681 99.9418 45.3721L101.524 45.7023C101.35 46.3549 101.02 46.8579 100.534 47.2108C100.048 47.5638 99.4485 47.7403 98.7349 47.7403ZM105.354 47.7403C104.724 47.7403 104.168 47.6056 103.686 47.3361C103.208 47.0628 102.832 46.6891 102.559 46.2146C102.289 45.7364 102.155 45.1899 102.155 44.5751C102.155 43.9034 102.288 43.319 102.553 42.8217C102.819 42.3245 103.185 41.9394 103.652 41.6661C104.119 41.3892 104.656 41.2506 105.263 41.2506C105.908 41.2506 106.456 41.4023 106.908 41.706C107.36 42.0097 107.694 42.4366 107.91 42.9868C108.126 43.537 108.202 44.1843 108.138 44.9281H106.606V44.3588C106.606 43.7326 106.506 43.2829 106.305 43.0096C106.107 42.7326 105.783 42.594 105.331 42.594C104.804 42.594 104.415 42.7554 104.164 43.0779C103.918 43.3967 103.794 43.8692 103.794 44.4954C103.794 45.0684 103.918 45.5124 104.164 45.8275C104.415 46.1386 104.781 46.2943 105.263 46.2943C105.567 46.2943 105.827 46.228 106.043 46.0951C106.259 45.9621 106.424 45.7706 106.538 45.5201L108.087 45.9641C107.855 46.5257 107.489 46.9623 106.988 47.2735C106.491 47.5846 105.946 47.7403 105.354 47.7403ZM103.316 44.9281V43.7781H107.392V44.9281H103.316Z" fill="#FAFAFA"/>
<path d="M47.5478 28.2625H46.5674L48.77 22.1423H49.8367L52.0393 28.2625H51.0589L49.3288 23.2539H49.2808L47.5478 28.2625ZM47.7121 25.8659H50.8916V26.6428H47.7121V25.8659ZM52.8514 29.9837V23.6722H53.7238V24.4165H53.7986C53.8503 24.3207 53.9251 24.2103 54.0228 24.0848C54.1204 23.9593 54.2557 23.8497 54.4292 23.7561C54.6025 23.6603 54.8317 23.6126 55.1166 23.6126C55.4871 23.6126 55.8178 23.7061 56.1086 23.8935C56.3994 24.0808 56.6276 24.3506 56.7929 24.7033C56.9603 25.056 57.0439 25.4803 57.0439 25.9763C57.0439 26.4725 56.9613 26.8978 56.7959 27.2524C56.6306 27.6051 56.4034 27.8769 56.1145 28.0682C55.8257 28.2576 55.496 28.3521 55.1255 28.3521C54.8465 28.3521 54.6183 28.3053 54.4411 28.2118C54.2659 28.118 54.1283 28.0086 54.0288 27.8831C53.929 27.7574 53.8523 27.646 53.7986 27.5482H53.7449V29.9837H52.8514ZM53.7268 25.9674C53.7268 26.2901 53.7736 26.573 53.8674 26.8161C53.961 27.0591 54.0963 27.2495 54.2738 27.3868C54.451 27.5225 54.6683 27.59 54.9252 27.59C55.1923 27.59 55.4153 27.5195 55.5945 27.3779C55.774 27.2346 55.9093 27.0403 56.0012 26.7953C56.0947 26.5502 56.1415 26.2743 56.1415 25.9674C56.1415 25.6647 56.0957 25.3926 56.0041 25.1516C55.9143 24.9105 55.7789 24.7202 55.5977 24.5808C55.4183 24.4412 55.1943 24.3717 54.9252 24.3717C54.6664 24.3717 54.4471 24.4382 54.2679 24.5719C54.0904 24.7053 53.956 24.8917 53.8644 25.1308C53.7726 25.3696 53.7268 25.6486 53.7268 25.9674ZM58.0451 29.9837V23.6722H58.9178V24.4165H58.9923C59.0443 24.3207 59.119 24.2103 59.2165 24.0848C59.3141 23.9593 59.4497 23.8497 59.623 23.7561C59.7962 23.6603 60.0254 23.6126 60.3103 23.6126C60.6808 23.6126 61.0115 23.7061 61.3025 23.8935C61.5934 24.0808 61.8213 24.3506 61.9867 24.7033C62.1542 25.056 62.2379 25.4803 62.2379 25.9763C62.2379 26.4725 62.1552 26.8978 61.9899 27.2524C61.8243 27.6051 61.5973 27.8769 61.3085 28.0682C61.0196 28.2576 60.6897 28.3521 60.3192 28.3521C60.0403 28.3521 59.8123 28.3053 59.6348 28.2118C59.4596 28.118 59.3222 28.0086 59.2225 27.8831C59.123 27.7574 59.0463 27.646 58.9923 27.5482H58.9386V29.9837H58.0451ZM58.9208 25.9674C58.9208 26.2901 58.9676 26.573 59.0611 26.8161C59.1547 27.0591 59.2903 27.2495 59.4675 27.3868C59.645 27.5225 59.862 27.59 60.119 27.59C60.386 27.59 60.609 27.5195 60.7885 27.3779C60.9677 27.2346 61.1033 27.0403 61.1949 26.7953C61.2884 26.5502 61.3352 26.2743 61.3352 25.9674C61.3352 25.6647 61.2894 25.3926 61.1979 25.1516C61.1083 24.9105 60.9726 24.7202 60.7914 24.5808C60.612 24.4412 60.388 24.3717 60.119 24.3717C59.8601 24.3717 59.6408 24.4382 59.4616 24.5719C59.2844 24.7053 59.1497 24.8917 59.0581 25.1308C58.9666 25.3696 58.9208 25.6486 58.9208 25.9674ZM68.8758 23.7499C68.8439 23.4671 68.7125 23.248 68.4813 23.0926C68.2501 22.9352 67.9593 22.8565 67.6086 22.8565C67.3576 22.8565 67.1405 22.8963 66.9571 22.976C66.774 23.0537 66.6314 23.1613 66.5299 23.2988C66.4302 23.4343 66.3804 23.5886 66.3804 23.7621C66.3804 23.9073 66.4143 24.0328 66.4822 24.1385C66.5517 24.2442 66.6425 24.3328 66.7539 24.4046C66.8675 24.4741 66.9891 24.533 67.1185 24.5808C67.2482 24.6266 67.3727 24.6645 67.4922 24.6944L68.0897 24.8499C68.285 24.8976 68.4852 24.9622 68.6904 25.0439C68.8956 25.1256 69.0859 25.2333 69.2612 25.3667C69.4367 25.5003 69.578 25.6657 69.6857 25.8629C69.7951 26.0599 69.85 26.2961 69.85 26.571C69.85 26.9178 69.7604 27.2255 69.581 27.4945C69.4037 27.7635 69.1456 27.9757 68.807 28.1311C68.4704 28.2865 68.063 28.364 67.5848 28.364C67.1267 28.364 66.7302 28.2915 66.3953 28.1459C66.0607 28.0004 65.7988 27.7942 65.6094 27.5274C65.4201 27.2584 65.3156 26.9396 65.2956 26.571H66.222C66.2401 26.7923 66.3116 26.9765 66.4371 27.124C66.5648 27.2693 66.7272 27.3779 66.9245 27.4497C67.1235 27.5195 67.3418 27.5541 67.5789 27.5541C67.8397 27.5541 68.0719 27.5133 68.2751 27.4316C68.4803 27.348 68.6417 27.2324 68.7592 27.0851C68.8768 26.9356 68.9355 26.7614 68.9355 26.5621C68.9355 26.3807 68.8837 26.2324 68.78 26.1169C68.6785 26.0013 68.5399 25.9057 68.3647 25.83C68.1915 25.7543 67.9952 25.6874 67.7761 25.6298L67.0529 25.4325C66.5628 25.2991 66.1743 25.1028 65.8874 24.8437C65.6025 24.5848 65.4599 24.2422 65.4599 23.8158C65.4599 23.4631 65.5557 23.1553 65.7468 22.8924C65.9381 22.6294 66.1973 22.4252 66.524 22.2797C66.8507 22.1323 67.2192 22.0586 67.6296 22.0586C68.0439 22.0586 68.4095 22.1313 68.7263 22.2767C69.0451 22.4222 69.2961 22.6224 69.4795 22.8774C69.6626 23.1304 69.7584 23.4213 69.7663 23.7499H68.8758ZM73.0243 23.6722V24.3895H70.517V23.6722H73.0243ZM71.1895 22.5726H72.083V26.9148C72.083 27.0881 72.109 27.2185 72.1607 27.3061C72.2125 27.3918 72.2793 27.4507 72.361 27.4826C72.4446 27.5123 72.5352 27.5274 72.633 27.5274C72.7045 27.5274 72.7674 27.5225 72.8211 27.5123C72.875 27.5024 72.9169 27.4945 72.9466 27.4886L73.108 28.2266C73.0562 28.2467 72.9825 28.2665 72.8869 28.2865C72.7914 28.3083 72.6718 28.3202 72.5283 28.3222C72.2932 28.3264 72.0741 28.2843 71.8709 28.1967C71.6677 28.1091 71.5034 27.9737 71.3779 27.7903C71.2521 27.6071 71.1895 27.3769 71.1895 27.1V22.5726ZM75.8969 28.3551C75.4667 28.3551 75.091 28.2566 74.7702 28.0593C74.4497 27.8621 74.2005 27.5861 74.0232 27.2314C73.846 26.877 73.7572 26.4624 73.7572 25.9884C73.7572 25.5122 73.846 25.0959 74.0232 24.7392C74.2005 24.3826 74.4497 24.1056 74.7702 23.9083C75.091 23.7111 75.4667 23.6126 75.8969 23.6126C76.3273 23.6126 76.7028 23.7111 77.0235 23.9083C77.3443 24.1056 77.5933 24.3826 77.7708 24.7392C77.948 25.0959 78.0366 25.5122 78.0366 25.9884C78.0366 26.4624 77.948 26.877 77.7708 27.2314C77.5933 27.5861 77.3443 27.8621 77.0235 28.0593C76.7028 28.2566 76.3273 28.3551 75.8969 28.3551ZM75.8999 27.6051C76.1788 27.6051 76.41 27.5314 76.5931 27.3839C76.7765 27.2366 76.9119 27.0403 76.9998 26.7953C77.0894 26.5502 77.1342 26.2802 77.1342 25.9854C77.1342 25.6924 77.0894 25.4236 76.9998 25.1786C76.9119 24.9315 76.7765 24.7333 76.5931 24.5838C76.41 24.4343 76.1788 24.3595 75.8999 24.3595C75.6189 24.3595 75.386 24.4343 75.2006 24.5838C75.0175 24.7333 74.8809 24.9315 74.7913 25.1786C74.7036 25.4236 74.6598 25.6924 74.6598 25.9854C74.6598 26.2802 74.7036 26.5502 74.7913 26.7953C74.8809 27.0403 75.0175 27.2366 75.2006 27.3839C75.386 27.5314 75.6189 27.6051 75.8999 27.6051ZM79.034 28.2625V23.6722H79.8976V24.4014H79.9454C80.029 24.1544 80.1765 23.9603 80.3877 23.8187C80.601 23.6754 80.8421 23.6036 81.1109 23.6036C81.1668 23.6036 81.2324 23.6056 81.3082 23.6096C81.3859 23.6135 81.4465 23.6185 81.4906 23.6244V24.4791C81.4547 24.4692 81.3908 24.4583 81.2992 24.4464C81.2077 24.4323 81.1158 24.4254 81.0243 24.4254C80.8131 24.4254 80.6248 24.4702 80.4595 24.5598C80.2961 24.6476 80.1666 24.7702 80.0709 24.9273C79.9753 25.0828 79.9276 25.2602 79.9276 25.4595V28.2625H79.034ZM84.0775 28.3551C83.6253 28.3551 83.236 28.2586 82.9093 28.0653C82.5846 27.87 82.3333 27.596 82.1561 27.2435C81.9809 26.8888 81.893 26.4735 81.893 25.9973C81.893 25.527 81.9809 25.1127 82.1561 24.7541C82.3333 24.3954 82.5803 24.1155 82.8972 23.9143C83.216 23.713 83.5884 23.6126 84.0149 23.6126C84.2738 23.6126 84.525 23.6554 84.7681 23.741C85.0111 23.8267 85.2292 23.9613 85.4225 24.1445C85.6158 24.3279 85.768 24.566 85.8796 24.8588C85.9913 25.1496 86.0469 25.5033 86.0469 25.9196V26.2364H82.3982V25.5669H85.1715C85.1715 25.3318 85.1235 25.1236 85.028 24.9424C84.9324 24.759 84.7978 24.6147 84.6245 24.509C84.4532 24.4036 84.252 24.3506 84.0208 24.3506C83.7699 24.3506 83.5506 24.4125 83.3635 24.536C83.1781 24.6575 83.0348 24.8169 82.933 25.0142C82.8335 25.2092 82.7838 25.4216 82.7838 25.6506V26.1735C82.7838 26.4805 82.8375 26.7413 82.9449 26.9567C83.0546 27.1717 83.207 27.3361 83.4023 27.4497C83.5976 27.5613 83.8256 27.617 84.0867 27.617C84.256 27.617 84.4104 27.593 84.5498 27.5452C84.6894 27.4955 84.8099 27.4217 84.9114 27.3242C85.0131 27.2264 85.0908 27.1059 85.1445 26.9626L85.9903 27.1151C85.9225 27.3641 85.8009 27.5821 85.6257 27.7695C85.4522 27.9546 85.2341 28.0992 84.9713 28.2026C84.7102 28.3043 84.4124 28.3551 84.0775 28.3551Z" fill="#FAFAFA"/>
</svg>
