<svg width="45" height="45" viewBox="0 0 45 45" fill="none" xmlns="http://www.w3.org/2000/svg">
<g clip-path="url(#clip0_238_740)">
<path d="M16.3846 9.93358L5.41895 28.8773L10.8926 3.0246C11.0693 2.19218 12.1896 2.0337 12.5885 2.78599L16.3846 9.93358ZM18.4065 13.7223L20.5923 17.8207L10.5192 27.3472L18.4065 13.7223ZM26.5851 12.1376L23.3246 15.2342L20.5559 10.0247L22.3282 6.97545C22.6889 6.35432 23.5923 6.37618 23.9239 7.0137L26.5851 12.1376ZM39.2812 35.0704L23.2517 44.3965C22.9785 44.5787 22.6506 44.6515 22.341 44.6515C22.0313 44.6515 21.7034 44.5787 21.4302 44.4147L6.76688 35.9447L34.7583 9.41809C35.2884 8.91536 36.1627 9.21044 36.2829 9.92994L40.1555 33.1942C40.283 33.941 39.9369 34.6879 39.2812 35.0704Z" fill="#00CE44"/>
</g>
<defs>
<clipPath id="clip0_238_740">
<rect width="43.7167" height="43.7162" fill="white" transform="translate(0.791992 0.935547)"/>
</clipPath>
</defs>
</svg>
