<svg width="45" height="45" viewBox="0 0 45 45" fill="none" xmlns="http://www.w3.org/2000/svg">
<path fill-rule="evenodd" clip-rule="evenodd" d="M40.4045 11.915C40.4179 11.9656 40.4247 12.0178 40.4248 12.0703V20.2269C40.4248 20.3316 40.3979 20.4344 40.3467 20.525C40.2955 20.6156 40.2219 20.6908 40.1333 20.7428L33.4567 24.6844V32.4968C33.4567 32.7094 33.3465 32.9056 33.1667 33.0127L19.2297 41.2392C19.1978 41.2577 19.163 41.2696 19.1282 41.2823C19.1151 41.2867 19.1028 41.2949 19.089 41.2986C18.9916 41.3249 18.8892 41.3249 18.7917 41.2986C18.7758 41.2942 18.7613 41.2852 18.7461 41.2793C18.7142 41.2674 18.6808 41.257 18.6504 41.2392L4.71626 33.0127C4.62774 32.9605 4.55419 32.8854 4.50302 32.7948C4.45185 32.7042 4.42487 32.6014 4.4248 32.4968L4.4248 8.02697C4.4248 7.97344 4.43205 7.9214 4.44511 7.87085C4.44946 7.85375 4.45961 7.83814 4.46541 7.82104C4.47628 7.78982 4.48643 7.75786 4.50238 7.72886C4.51326 7.70953 4.52921 7.69392 4.54226 7.67608C4.55893 7.65229 4.57416 7.62776 4.59373 7.60695C4.61041 7.58985 4.63216 7.57721 4.65101 7.56234C4.67204 7.5445 4.69089 7.52517 4.71481 7.51105L11.683 3.39781C11.7712 3.34576 11.8712 3.31836 11.973 3.31836C12.0747 3.31836 12.1747 3.34576 12.263 3.39781L19.2304 7.51105H19.2318C19.255 7.52591 19.2746 7.5445 19.2956 7.5616C19.3145 7.57647 19.3355 7.58985 19.3522 7.6062C19.3725 7.62776 19.387 7.65229 19.4044 7.67608C19.4167 7.69392 19.4334 7.70953 19.4435 7.72886C19.4602 7.7586 19.4696 7.78982 19.4812 7.82104C19.487 7.83814 19.4972 7.85375 19.5015 7.8716C19.5149 7.92226 19.5217 7.97449 19.5218 8.02697L19.5218 23.3106L25.3278 19.8827L25.3278 12.0696C25.3278 12.0175 25.335 11.9648 25.3481 11.915C25.3531 11.8971 25.3626 11.8815 25.3684 11.8644C25.38 11.8332 25.3901 11.8012 25.4061 11.7722C25.417 11.7529 25.4329 11.7373 25.4452 11.7194C25.4626 11.6957 25.4771 11.6711 25.4974 11.6503C25.5141 11.6332 25.5351 11.6206 25.554 11.6057C25.5757 11.5879 25.5946 11.5685 25.6178 11.5544L32.5866 7.44117C32.6748 7.38904 32.7749 7.3616 32.8767 7.3616C32.9785 7.3616 33.0785 7.38904 33.1667 7.44117L40.1341 11.5544C40.1587 11.5693 40.1776 11.5879 40.1993 11.605C40.2174 11.6198 40.2385 11.6332 40.2551 11.6496C40.2755 11.6711 40.29 11.6957 40.3074 11.7194C40.3204 11.7373 40.3364 11.7529 40.3465 11.7722C40.3632 11.8012 40.3726 11.8332 40.3842 11.8644C40.3907 11.8815 40.4002 11.8971 40.4045 11.915ZM39.2633 19.8827V13.0999L36.8251 14.5392L33.4567 16.5278V23.3106L39.2641 19.8827H39.2633ZM32.2959 32.1526V25.3653L28.9826 27.3056L19.5211 32.8424V39.6936L32.2959 32.1526ZM5.58628 9.05658L5.58628 32.1526L18.3596 39.6929V32.8432L11.6866 28.9708L11.6844 28.9693L11.6815 28.9678C11.659 28.9545 11.6402 28.9351 11.6191 28.9188C11.601 28.9039 11.58 28.892 11.564 28.8757L11.5626 28.8734C11.5437 28.8548 11.5307 28.8318 11.5147 28.811C11.5002 28.7909 11.4828 28.7738 11.4712 28.753L11.4705 28.7508C11.4575 28.7285 11.4495 28.7017 11.4401 28.6764C11.4306 28.6541 11.4183 28.6333 11.4125 28.6095C11.4053 28.5813 11.4038 28.5508 11.4009 28.5218C11.398 28.4995 11.3922 28.4772 11.3922 28.4549L11.3922 12.4844L8.02451 10.4951L5.58628 9.05658ZM11.9737 4.60063L6.16847 8.02697L11.9722 11.4533L17.7767 8.02622L11.9722 4.60063H11.9737ZM14.9927 25.9838L18.3604 23.996L18.3604 9.05658L15.9221 10.4958L12.5537 12.4844L12.5537 27.4238L14.9927 25.9838ZM32.8767 8.64399L27.0722 12.0703L32.8767 15.4967L38.6804 12.0696L32.8767 8.64399ZM32.2959 16.5278L28.9275 14.5392L26.4893 13.0999L26.4893 19.8827L29.857 21.8706L32.2959 23.3106V16.5278ZM18.9396 31.8128L27.4535 26.8291L31.7094 24.3387L25.9092 20.9146L19.2311 24.8568L13.1446 28.4497L18.9396 31.8128Z" fill="#00CE44"/>
</svg>
