<svg width="90" height="89" viewBox="0 0 90 89" fill="none" xmlns="http://www.w3.org/2000/svg">
<path d="M72.4892 0.761719H17.4728C7.82283 0.761719 0 8.61139 0 18.2945V70.9903C0 80.6734 7.82283 88.523 17.4728 88.523H72.4892C82.1392 88.523 89.962 80.6734 89.962 70.9903V18.2945C89.962 8.61139 82.1392 0.761719 72.4892 0.761719Z" fill="white"/>
<path fill-rule="evenodd" clip-rule="evenodd" d="M27.907 66.6761C25.5812 68.9978 25.5812 72.7622 27.907 75.0839C30.2329 77.4056 34.0039 77.4056 36.3297 75.0839C38.6556 72.7622 38.6556 68.9978 36.3297 66.6761C34.4221 64.7719 33.3544 62.3449 33.1266 59.8569C33.0654 59.1848 33.0654 58.5127 33.1266 57.8406C33.2082 56.9547 33.3952 56.079 33.6876 55.2304C34.2181 53.6927 35.0988 52.2467 36.3297 51.0214C38.6556 48.6997 38.6556 44.9353 36.3297 42.6136C34.4221 40.7094 33.3544 38.2824 33.1266 35.7944C32.8375 32.6342 33.9053 29.3757 36.3297 26.9589C40.6584 22.6379 47.6801 22.6379 52.0122 26.9589C54.4332 29.3757 55.5009 32.6342 55.2153 35.7944C54.9875 38.2824 53.9198 40.7094 52.0122 42.6136C49.6863 44.9353 49.6863 48.6997 52.0122 51.0214C53.2431 52.2501 54.1238 53.6927 54.6542 55.2304C54.9467 56.079 55.1337 56.9547 55.2153 57.8406C55.2765 58.5127 55.2765 59.1882 55.2153 59.8569C54.9875 62.3449 53.9198 64.7719 52.0122 66.6761C49.6863 68.9978 49.6863 72.7622 52.0122 75.0839C54.338 77.4056 58.109 77.4056 60.4349 75.0839C62.7607 72.7622 62.7607 68.9978 60.4349 66.6761C58.5273 64.7719 57.4595 62.3449 57.2317 59.8569C57.1705 59.1848 57.1705 58.5093 57.2317 57.8406C57.4561 55.3763 58.5035 52.9765 60.4383 51.018C62.2133 49.2326 64.7227 46.0589 66.0897 41.7616C68.6093 33.8426 66.7255 24.8306 60.4349 18.5511C51.4511 9.58323 36.8874 9.58323 27.9036 18.5511C21.6163 24.8306 19.7325 33.8426 22.2522 41.7616C23.5954 45.9808 25.9314 49.0255 27.9648 51.0825C29.835 52.9731 30.8823 55.3763 31.1068 57.8406C31.168 58.5127 31.168 59.1882 31.1068 59.8569C30.8789 62.3449 29.8112 64.7719 27.9036 66.6761M48.384 30.5806C46.0581 28.2589 42.2871 28.2589 39.9613 30.5806C37.6354 32.9024 37.6354 36.6667 39.9613 38.9884C41.8689 40.8927 42.9366 43.3196 43.1644 45.8077C43.2256 46.4798 43.2256 47.1552 43.1644 47.8239C42.9366 50.312 41.8689 52.7389 39.9613 54.6432C39.2642 55.339 38.778 56.1638 38.4957 57.0396C37.8429 59.0897 38.3291 61.4251 39.9613 63.0509C42.2871 65.3727 46.0581 65.3727 48.384 63.0509C50.0128 61.4251 50.5024 59.0897 49.8495 57.0396C49.5707 56.1638 49.0811 55.339 48.384 54.6432C46.4764 52.7389 45.4087 50.312 45.1808 47.8239C45.1196 47.1518 45.1196 46.4764 45.1808 45.8077C45.4087 43.3196 46.4764 40.8927 48.384 38.9884C50.7098 36.6667 50.7098 32.9024 48.384 30.5806Z" fill="url(#paint0_linear_225_177)"/>
<defs>
<linearGradient id="paint0_linear_225_177" x1="21.1709" y1="44.3243" x2="67.1744" y2="44.3243" gradientUnits="userSpaceOnUse">
<stop stop-color="#9A6CF2"/>
<stop offset="1" stop-color="#5237DC"/>
</linearGradient>
</defs>
</svg>
