<svg width="90" height="88" viewBox="0 0 90 88" fill="none" xmlns="http://www.w3.org/2000/svg">
<path d="M72.4892 0H17.4728C7.82283 0 0 7.84967 0 17.5327V70.2286C0 79.9116 7.82283 87.7613 17.4728 87.7613H72.4892C82.1392 87.7613 89.962 79.9116 89.962 70.2286V17.5327C89.962 7.84967 82.1392 0 72.4892 0Z" fill="white"/>
<path d="M48.0087 40.5654C48.1505 41.1295 47.7723 41.2124 47.5221 41.5388C47.0049 42.2107 43.6985 45.2747 42.9338 45.4047C38.3316 46.1789 31.7579 44.8378 26.9583 45.4157C24.4612 45.7171 21.3189 48.2778 20.4513 50.6145C17.7428 57.9038 25.1647 64.1617 32.1138 61.5457C36.7827 59.787 46.3319 48.6373 50.7339 44.8903C54.1765 41.9591 57.1936 40.4409 61.8903 40.5515C72.2515 40.7949 78.7418 51.8561 73.0718 60.7521C67.5881 69.355 54.6631 68.5226 49.0098 60.5253L52.1326 57.431C52.7499 57.3259 56.1536 60.8655 57.2381 61.3632C64.3263 64.618 72.7881 58.0034 69.6069 50.3794C67.4324 45.1696 60.0828 43.9584 55.6808 47.0445C50.1249 50.9436 44.5022 58.5205 38.9378 62.8869C33.9853 66.7749 28.4627 68.3982 22.4507 65.4559C13.2825 60.9733 12.3092 48.1755 21.0186 42.75C22.2338 41.9923 25.6291 40.5626 26.9722 40.5626H48.0143L48.0087 40.5654Z" fill="#3675E4"/>
<path d="M62.6883 35.7065H57.4688C56.4232 30.8285 54.4711 26.4095 48.8373 25.9754C46.7267 25.8122 42.7307 25.7652 40.6646 25.9864C35.6731 26.5229 33.5097 31.3843 32.6754 35.7037H27.4559C29.2162 28.0134 32.5892 21.703 41.3042 21.1167C43.6762 20.9564 47.4107 20.9481 49.7605 21.1748C57.7524 21.9436 61.145 28.7186 62.6883 35.7065Z" fill="#3675E4"/>
</svg>
