<svg width="90" height="89" viewBox="0 0 90 89" fill="none" xmlns="http://www.w3.org/2000/svg">
<g clip-path="url(#clip0_225_147)">
<path d="M72.9582 0.698242H17.9418C8.29183 0.698242 0.468994 8.54791 0.468994 18.231V70.9268C0.468994 80.6099 8.29183 88.4596 17.9418 88.4596H72.9582C82.6082 88.4596 90.431 80.6099 90.431 70.9268V18.231C90.431 8.54791 82.6082 0.698242 72.9582 0.698242Z" fill="black"/>
<path d="M47.9138 40.6794L48.1852 40.2207C48.0791 40.364 47.9893 40.5176 47.9138 40.6794Z" fill="#BBF246"/>
<path d="M68.7406 26.0779C68.7406 26.5079 68.6774 26.9236 68.559 27.3147C68.5509 27.3413 68.5386 27.3638 68.5223 27.3843L67.9672 28.06L67.0755 29.1412L66.5102 29.8313C66.5102 29.8313 66.5082 29.8333 66.5062 29.8333L54.4337 44.5046C54.397 44.5497 54.3439 44.5743 54.2868 44.5743H49.4995C49.4729 44.5743 49.4464 44.5702 49.4219 44.5599C48.3792 44.132 47.6425 43.104 47.6425 41.9041C47.6425 41.8038 47.6466 41.7035 47.6568 41.6031C47.6915 41.2796 47.7772 40.9704 47.9098 40.6878C47.9139 40.6796 47.918 40.6735 47.92 40.6674L48.1853 40.2189L53.7848 30.7916H53.7869L54.3439 29.8517C54.3623 29.7862 54.3786 29.7227 54.3909 29.6593C54.6194 28.4552 53.744 27.2676 52.5298 27.1325C52.1686 27.0915 51.8258 27.1448 51.5156 27.2676C51.2238 27.3802 50.9647 27.5543 50.7545 27.7795C50.6912 27.843 50.6341 27.9106 50.581 27.9843C50.579 27.9863 50.5769 27.9884 50.5769 27.9925L36.67 44.5087C36.6333 44.5517 36.5802 44.5763 36.5231 44.5763H24.869C22.561 44.5763 20.6714 42.6802 20.6714 40.3643V27.8553C20.6714 27.8307 20.6755 27.8061 20.6836 27.7836C20.804 27.4601 20.9612 27.155 21.155 26.8724C21.1632 26.8622 21.1713 26.8519 21.1795 26.8417L22.259 25.7524L26.928 21.0366H26.93L27.681 20.277L28.285 19.6668C28.285 19.6668 28.2973 19.6545 28.3054 19.6483C29.0156 19.0771 29.9073 18.7617 30.8174 18.7617H60.9311L60.9168 18.7904C61.0168 18.7781 61.1209 18.7699 61.2229 18.7679C61.276 18.7617 61.329 18.7617 61.3821 18.7617H62.7861C62.8106 18.7617 62.835 18.7658 62.8575 18.774C62.9963 18.8252 63.133 18.8846 63.2636 18.9501C63.284 18.9603 63.3003 18.9726 63.3166 18.989L65.1981 20.8872L66.7837 22.4864L68.0693 23.7866C68.0795 23.7969 68.0897 23.8112 68.0978 23.8235C68.508 24.4767 68.7427 25.2527 68.7427 26.08L68.7406 26.0779Z" fill="#BBF246"/>
<path d="M42.9897 48.4746L42.7183 48.9333C42.8244 48.7899 42.9142 48.6364 42.9897 48.4746Z" fill="#BBF246"/>
<path d="M22.1612 63.0784C22.1612 62.6484 22.2245 62.2328 22.3428 61.8417C22.351 61.815 22.3632 61.7925 22.3796 61.772L22.9346 61.0963L23.8264 60.0152L24.3916 59.3251C24.3916 59.3251 24.3937 59.3231 24.3957 59.3231L36.4681 44.6517C36.5049 44.6067 36.5579 44.5821 36.6151 44.5821H41.4024C41.4289 44.5821 41.4554 44.5862 41.4799 44.5965C42.5227 45.0244 43.2594 46.0523 43.2594 47.2522C43.2594 47.3526 43.2553 47.4529 43.2451 47.5532C43.2104 47.8768 43.1247 48.186 42.992 48.4685C42.988 48.4767 42.9839 48.4829 42.9818 48.489L42.7166 48.9375L37.1171 58.3648H37.115L36.5579 59.3046C36.5396 59.3702 36.5232 59.4336 36.511 59.4971C36.2824 60.7011 37.1579 61.8888 38.372 62.0239C38.7332 62.0649 39.0761 62.0116 39.3862 61.8888C39.678 61.7761 39.9372 61.6021 40.1474 61.3769C40.2107 61.3134 40.2678 61.2458 40.3209 61.1721C40.3229 61.17 40.3249 61.168 40.3249 61.1639L54.2319 44.6476C54.2686 44.6046 54.3217 44.5801 54.3788 44.5801H66.0329C68.3408 44.5801 70.2305 46.4762 70.2305 48.7921V61.3011C70.2305 61.3257 70.2264 61.3502 70.2182 61.3728C70.0978 61.6963 69.9407 62.0014 69.7468 62.284C69.7387 62.2942 69.7305 62.3044 69.7224 62.3147L68.6429 63.404L63.9739 68.1197H63.9718L63.2209 68.8794L62.6169 69.4896C62.6169 69.4896 62.6046 69.5019 62.5965 69.508C61.8863 70.0793 60.9946 70.3947 60.0844 70.3947H29.9707L29.985 70.366C29.885 70.3783 29.781 70.3865 29.6789 70.3885C29.6259 70.3947 29.5728 70.3947 29.5198 70.3947H28.1158C28.0913 70.3947 28.0668 70.3906 28.0444 70.3824C27.9056 70.3312 27.7689 70.2718 27.6383 70.2063C27.6179 70.196 27.6016 70.1837 27.5852 70.1674L25.7038 68.2692L24.1182 66.67L22.8326 65.3698C22.8224 65.3595 22.8122 65.3452 22.804 65.3329C22.3939 64.6797 22.1592 63.9036 22.1592 63.0764L22.1612 63.0784Z" fill="#BBF246"/>
</g>
<defs>
<clipPath id="clip0_225_147">
<rect width="90" height="88" fill="white" transform="translate(0 0.761719)"/>
</clipPath>
</defs>
</svg>
