<svg width="44" height="45" viewBox="0 0 44 45" fill="none" xmlns="http://www.w3.org/2000/svg">
<path d="M21.9961 4.39258C21.4974 4.39258 20.9989 4.51489 20.5685 4.76079L7.02986 12.576C6.15553 13.0815 5.61035 14.0386 5.61035 15.0495L5.61035 29.2285C5.61035 30.2531 6.15553 31.1965 7.02986 31.7019L10.584 33.7511C12.3053 34.5982 12.9191 34.597 13.6978 34.597C16.2525 34.597 17.7135 33.0535 17.7135 30.3758L17.7135 15.7459C17.7135 15.5273 17.5372 15.3483 17.3186 15.3483H15.6109C15.3787 15.3483 15.2134 15.5273 15.2134 15.7459L15.2134 30.3625C15.2134 31.5647 13.9717 32.7392 11.9634 31.742L8.24658 29.5967C8.10996 29.5284 8.02778 29.3788 8.02778 29.2285L8.02778 15.0628C8.02778 14.8989 8.10996 14.7606 8.24658 14.6786L21.7853 6.86603C21.9082 6.78406 22.0729 6.78406 22.2095 6.86603L35.7482 14.6786C35.8848 14.7606 35.967 14.8992 35.967 15.0495V29.2285C35.967 29.3788 35.8845 29.5284 35.7615 29.5967L22.2095 37.4253C22.0866 37.4936 21.9082 37.4936 21.7853 37.4253L18.3005 35.3628C18.2049 35.2945 18.0706 35.2814 17.975 35.3361C17.005 35.8825 16.8274 35.9504 15.9258 36.2646C15.7072 36.3329 15.3655 36.4691 16.0485 36.8516L20.5685 39.5305C21.0057 39.7764 21.4989 39.9121 21.9907 39.9121C22.4962 39.9121 22.9864 39.7764 23.4236 39.5305L36.9783 31.7019C37.8526 31.1965 38.3978 30.2531 38.3978 29.2285L38.3978 15.0628C38.3978 14.0382 37.8526 13.0949 36.9783 12.5894L23.4236 4.76079C22.9932 4.51489 22.4947 4.39258 21.9961 4.39258ZM25.6382 15.3297C21.772 15.3297 19.4639 16.968 19.4639 19.7002C19.4639 22.6647 21.7569 23.4831 25.4728 23.852C29.9127 24.2892 30.2543 24.9468 30.2543 25.8212C30.2543 27.3239 29.0404 27.9664 26.1852 27.9664C22.5922 27.9664 21.7993 27.0635 21.5398 25.2875C21.5125 25.0963 21.3495 24.9593 21.1582 24.9593H19.3945C19.1759 24.9593 19.013 25.1386 19.013 25.3435C19.013 27.625 20.2561 30.3411 26.1852 30.3411C30.4749 30.3411 32.9332 28.6493 32.9332 25.6984C32.9332 22.7749 30.952 21.9947 26.7989 21.4346C22.5775 20.8881 22.1535 20.6011 22.1535 19.6175C22.1535 18.7978 22.5234 17.7204 25.6382 17.7204C28.4115 17.7204 29.4492 18.3196 29.8727 20.1912C29.9137 20.3688 30.063 20.506 30.2543 20.506H32.018C32.1273 20.506 32.2215 20.4519 32.3035 20.37C32.3718 20.3017 32.4132 20.1914 32.3995 20.0684C32.1263 16.8444 29.9825 15.3297 25.6382 15.3297Z" fill="#00CE44"/>
</svg>
