<svg xmlns="http://www.w3.org/2000/svg" fill="none" viewBox="0 0 50 50"><path fill="#4A4A4A" d="M42.615 11.275c-.732 0-1.43.085-2.096.285a5.3 5.3 0 0 0-1.73.867c-.497.367-.895.83-1.196 1.363-.3.531-.451 1.15-.451 1.847 0 .865.282 1.678.83 2.41.548.747 1.447 1.315 2.661 1.696l2.409.749c.814.266 1.38.546 1.68.862.3.317.448.697.448 1.164 0 .681-.298 1.214-.863 1.579-.564.366-1.383.549-2.429.549a10 10 0 0 1-1.977-.2 9.2 9.2 0 0 1-1.831-.581c-.167-.067-.315-.134-.415-.167a1 1 0 0 0-.302-.049c-.25 0-.382.165-.382.513v.85c0 .15.035.316.102.464.069.156.252.318.517.468.433.25 1.08.467 1.912.667s1.695.302 2.56.302a7.9 7.9 0 0 0 2.376-.355c.714-.216 1.332-.51 1.847-.927.515-.4.913-.9 1.213-1.465a4.3 4.3 0 0 0 .435-1.929c0-.864-.25-1.646-.765-2.327s-1.382-1.214-2.58-1.595l-2.36-.749c-.881-.283-1.494-.599-1.827-.916a1.57 1.57 0 0 1-.5-1.18c0-.68.266-1.162.78-1.477.516-.316 1.267-.468 2.215-.468q1.771.002 3.194.652c.283.133.497.199.63.199.25 0 .383-.185.383-.533v-.786q0-.349-.15-.545c-.1-.15-.266-.286-.497-.419a3.6 3.6 0 0 0-.696-.301c-.3-.1-.615-.181-.948-.264-.35-.067-.7-.134-1.082-.184a8 8 0 0 0-1.115-.069m-34.294.037c-.914 0-1.781.1-2.596.317q-1.224.298-2.095.749c-.234.117-.381.231-.464.346-.084.117-.118.32-.118.586v.814c0 .35.116.512.35.512.066 0 .151-.015.268-.049.115-.033.311-.098.578-.215a13 13 0 0 1 1.798-.562 7.6 7.6 0 0 1 1.795-.22c1.281 0 2.179.25 2.71.765.514.515.781 1.397.781 2.662v1.216a22 22 0 0 0-1.912-.37 13 13 0 0 0-1.762-.13c-1.713 0-3.059.433-4.073 1.298-1.013.864-1.514 2.01-1.514 3.422 0 1.331.414 2.394 1.229 3.194.814.798 1.932 1.2 3.328 1.2q2.943 0 4.887-2.299c.184.384.352.702.517.985.167.267.367.531.598.781.167.15.332.232.497.232.133 0 .285-.05.435-.15l1.046-.696c.216-.167.317-.336.317-.5a.73.73 0 0 0-.118-.383 8.6 8.6 0 0 1-.529-1.196c-.117-.367-.183-.867-.183-1.481h-.037v-5.392q-.001-2.743-1.38-4.09c-.928-.895-2.374-1.346-4.353-1.346m7.731.399c-.266 0-.399.152-.399.419 0 .116.051.332.151.663l3.906 12.854c.1.317.217.547.35.647.134.117.333.167.63.167h1.43c.3 0 .533-.05.666-.167.134-.117.234-.332.318-.663l2.56-10.71 2.575 10.726c.067.333.184.55.317.667.134.117.349.167.663.167h1.433c.283 0 .497-.067.63-.167.134-.1.25-.32.35-.65l4.008-12.855c.067-.183.098-.315.114-.415.017-.1.037-.185.037-.268 0-.284-.152-.415-.42-.415h-1.545c-.3 0-.514.066-.647.166-.117.1-.234.316-.334.647l-2.877 11.141-2.628-11.14c-.067-.317-.18-.548-.314-.648-.133-.116-.352-.166-.667-.166h-1.33c-.3 0-.53.066-.664.166-.133.1-.234.316-.317.647L21.46 23.536 18.664 12.53c-.1-.317-.2-.552-.333-.652-.117-.116-.332-.166-.647-.166zm-7.78 8c.515 0 1.031.034 1.563.101.531.067 1.044.164 1.526.28v.7c0 .565-.067 1.047-.167 1.445-.1.4-.297.75-.562 1.066-.45.498-.98.862-1.578 1.062s-1.166.301-1.714.301c-.764 0-1.347-.2-1.745-.614-.417-.4-.615-.98-.615-1.762 0-.831.266-1.462.814-1.912s1.364-.668 2.478-.668M46.326 29.92c-1.75.024-3.817.415-5.38 1.513-.48.35-.399.816.135.749 1.779-.217 5.706-.682 6.404.215.698.882-.784 4.593-1.448 6.238-.2.498.235.695.683.314 2.925-2.46 3.687-7.598 3.089-8.346-.3-.366-1.733-.708-3.483-.684m-45.96.992c-.366.046-.53.49-.142.838 6.518 5.888 15.15 9.428 24.727 9.428 6.836 0 14.78-2.145 20.252-6.184.897-.667.117-1.683-.798-1.266-6.135 2.594-12.801 3.862-18.872 3.862-8.996 0-17.694-2.48-24.744-6.572a.67.67 0 0 0-.423-.106"/></svg>