<svg xmlns="http://www.w3.org/2000/svg" fill="none" viewBox="0 0 50 50"><path fill="#4A4A4A" d="M20 6.875a.625.625 0 0 0-.625.625v5H8.75a.625.625 0 0 0-.625.625v5h-5a.625.625 0 0 0-.625.625v5.625a.625.625 0 0 0 .625.625H31.25a.625.625 0 0 0 .625-.625V18.75a.625.625 0 0 0-.625-.625h-5V7.5a.625.625 0 0 0-.625-.625zm.625 1.25H25V12.5h-4.375zM9.375 13.75h4.375v4.375H9.375zm5.625 0h4.375v4.375H15zm5.625 0H25v4.375h-4.375zm16.74 2.054a.63.63 0 0 0-.515.28l-.489.739c-1.057 1.604-1.478 3.664-1.324 5.561l.001.014c.123 1.181.519 2.507 1.361 3.53a.624.624 0 0 0 1.105-.337.63.63 0 0 0-.14-.458c-.616-.75-.977-1.866-1.08-2.858-.132-1.632.257-3.452 1.12-4.763v-.001l.141-.212.18.12c1.88 1.468 2.828 3.046 2.93 4.948a.625.625 0 0 0 .788.57c.956-.258 2.15-.323 3.213-.227 1.062.095 2.01.38 2.385.633l.281.19-.151.306-.055.109c-.013.024-.057.076.017-.022a1 1 0 0 0-.055.088c-.878 1.696-2.156 2.442-3.444 2.809-1.288.366-2.553.31-3.321.297a.625.625 0 0 0-.591.393c-4.452 11.165-11.586 15.62-20.028 15.612-5.547-.005-9.154-1.784-11.554-4.187a13 13 0 0 1-1.073-1.211c-2.96-3.79-3.366-8.394-3.317-10.84a.625.625 0 1 0-1.25-.024c-.052 2.61.356 7.504 3.582 11.633q.536.689 1.173 1.326c2.629 2.633 6.62 4.547 12.438 4.553 8.784.008 16.406-4.814 21.008-16.006.78.017 1.952.032 3.275-.344 1.52-.432 3.154-1.418 4.197-3.416.01-.019.035-.055.046-.075l.067-.132.17-.343.23-.473a.625.625 0 0 0-.215-.788l-.731-.492h-.002l-.002-.001a.6.6 0 0 0-.206-.09c-.717-.415-1.667-.652-2.762-.75a11.2 11.2 0 0 0-2.983.159c-.31-2-1.433-3.743-3.297-5.196l-.036-.025-.733-.492a.63.63 0 0 0-.354-.107M3.75 19.375h4.375v4.375H3.75zm5.625 0h4.375v4.375H9.375zm5.625 0h4.375v4.375H15zm5.625 0H25v4.375h-4.375zm5.625 0h4.375v4.375H26.25zm7.6 6.584a.624.624 0 0 0 .106 1.238q.056.002.113-.006a.63.63 0 0 0 .506-.725.62.62 0 0 0-.717-.507zm-3.019.257a.624.624 0 0 0 .019 1.25h.024a.626.626 0 0 0-.043-1.25m-24.981.038a.62.62 0 1 0 0 1.242.621.621 0 1 0 0-1.243m3.13 0a.616.616 0 0 0-.624.617c0 .351.275.625.625.625a.62.62 0 0 0 .619-.625.615.615 0 0 0-.62-.617m3.12 0a.615.615 0 0 0-.62.617c0 .351.277.625.62.625a.621.621 0 1 0 0-1.243m3.13 0a.621.621 0 1 0 0 1.242.62.62 0 1 0 0-1.243m3.12 0a.615.615 0 0 0-.62.617c0 .351.277.625.62.625.35 0 .625-.275.625-.625a.616.616 0 0 0-.625-.617m3.13 0a.62.62 0 0 0-.63.617c0 .351.282.626.625.633.35 0 .624-.282.63-.625a.623.623 0 0 0-.624-.625m3.126.006a.617.617 0 0 0-.625.619.62.62 0 0 0 .619.63h.006a.62.62 0 0 0 .619-.624.62.62 0 0 0-.62-.625m3.119 0a.626.626 0 0 0-.62.63c0 .345.276.626.626.62a.613.613 0 0 0 .619-.625.626.626 0 0 0-.625-.625"/></svg>