<svg xmlns="http://www.w3.org/2000/svg" fill="none" viewBox="0 0 50 50"><g clip-path="url(#a)"><path fill="#4A4A4A" fill-rule="evenodd" d="M60.96 4.74q.04.15.04.303v15.884a1.16 1.16 0 0 1-.583 1.005l-13.353 7.676V44.82c0 .414-.22.796-.58 1.005L18.61 61.846c-.064.036-.134.06-.203.084-.026.008-.051.024-.079.032a1.2 1.2 0 0 1-.594 0c-.032-.01-.061-.027-.092-.038-.063-.023-.13-.044-.19-.078l-27.87-16.02A1.16 1.16 0 0 1-11 44.82V-2.83q0-.156.04-.304c.01-.033.03-.063.041-.097.022-.06.042-.123.074-.18.022-.037.054-.067.08-.102.033-.046.064-.094.103-.135.033-.033.077-.057.114-.086.043-.035.08-.073.128-.1l13.936-8.01a1.16 1.16 0 0 1 1.16 0l13.935 8.01h.003c.046.029.086.065.128.098.037.03.08.055.113.087.04.042.07.09.104.136.025.035.058.065.079.103.033.058.052.119.075.18.012.033.032.063.04.098q.04.148.041.302v29.763l11.612-6.675V5.042q0-.153.04-.301c.01-.035.03-.065.041-.099.023-.06.044-.123.075-.18.022-.037.054-.067.079-.102.035-.046.064-.094.104-.135.034-.033.076-.058.113-.087.044-.034.082-.072.128-.1l13.938-8.01a1.16 1.16 0 0 1 1.16 0l13.935 8.01c.049.03.087.066.13.1.036.028.078.054.112.086.04.042.07.09.104.136.026.035.058.065.078.103.034.056.053.118.076.18.013.033.032.063.04.098m-2.283 15.517V7.048l-4.876 2.803-6.737 3.873v13.208l11.615-6.675zM44.742 44.15V30.933l-6.626 3.779-18.923 10.782v13.342zM-8.677-.826v44.977L16.87 58.835v-13.34l-13.346-7.54-.005-.003-.006-.003c-.045-.026-.082-.064-.124-.096-.037-.029-.079-.052-.11-.084l-.003-.004c-.038-.036-.064-.08-.096-.121-.03-.04-.064-.073-.087-.113l-.002-.005c-.026-.043-.042-.095-.06-.145-.02-.043-.044-.084-.056-.13-.014-.055-.017-.114-.023-.17-.006-.044-.017-.088-.017-.13V5.85l-6.736-3.874zM4.098-9.503l-11.61 6.672L4.094 3.842l11.609-6.674-11.61-6.671zm6.038 41.641 6.735-3.871V-.826l-4.876 2.803L5.258 5.85v29.092zM45.904-1.629l-11.61 6.672 11.61 6.673L57.51 5.042zm-1.162 15.353L38.005 9.85 33.13 7.048v13.209l6.735 3.871 4.878 2.804zM18.03 43.489l17.027-9.705 8.512-4.85-11.6-6.668-13.356 7.677L6.44 36.94z" clip-rule="evenodd"/></g><defs><clipPath id="a"><path fill="#fff" d="M0 0h50v50H0z"/></clipPath></defs></svg>