<svg xmlns="http://www.w3.org/2000/svg" fill="none" viewBox="0 0 50 50"><path fill="#4A4A4A" d="M39.784 19.124a15.37 15.37 0 0 0-4.58-7.323l-4.79 4.79a8.58 8.58 0 0 1 3.14 5.883v1.57c.027 0 .052-.008.08-.008a4.393 4.393 0 0 1 4.387 4.388 4.394 4.394 0 0 1-4.388 4.389c-.027 0-.052-.008-.079-.009v.008H25v6.771h8.554v-.004q.04.002.08.004c6.152 0 11.158-5.006 11.158-11.158 0-3.88-1.994-7.301-5.008-9.301"/><path fill="#4A4A4A" d="m20.375 26.656 4.917-4.916-.012-.014-4.913 4.914z" opacity=".5"/><path fill="#4A4A4A" d="m20.375 26.656 4.917-4.916-.012-.014-4.913 4.914z" opacity=".5"/><path fill="#4A4A4A" d="M25 7.892c-8.472 0-15.364 6.892-15.364 15.364 0 .243.025.48.036.719h6.771a9 9 0 0 1-.036-.719c0-4.738 3.855-8.594 8.593-8.594 2.051 0 3.936.725 5.415 1.929l4.79-4.79C32.488 9.378 28.918 7.891 25 7.891"/><path fill="#4A4A4A" d="M16.367 32.812h-.002a4.3 4.3 0 0 1-1.783-.388L9.675 37.33a11.08 11.08 0 0 0 6.69 2.253H25v-6.77z" opacity=".5"/><path fill="#4A4A4A" d="M16.367 32.812h-.002a4.3 4.3 0 0 1-1.783-.388L9.675 37.33a11.08 11.08 0 0 0 6.69 2.253H25v-6.77z"/><path fill="#4A4A4A" d="M11.98 28.427a4.39 4.39 0 0 1 4.385-4.385 4.4 4.4 0 0 1 4 2.598l4.914-4.914a11.14 11.14 0 0 0-8.915-4.455c-6.145 0-11.155 5-11.155 11.156 0 3.636 1.761 6.865 4.466 8.903l4.906-4.906a4.39 4.39 0 0 1-2.602-3.997"/></svg>