<svg xmlns="http://www.w3.org/2000/svg" fill="none" viewBox="0 0 42 46"><path fill="#4A4A4A" d="M41.273.324A1 1 0 0 0 40.535 0H1.465a.996.996 0 0 0-.996 1.09l3.52 39.426c.034.414.323.757.722.875l16.011 4.57c.086.027.18.039.274.039a1 1 0 0 0 .273-.04l16.024-4.57c.398-.117.683-.46.722-.874L41.531 1.09a.99.99 0 0 0-.258-.766m-8.426 13.594H14.035l.45 5.09h17.91L31.05 34.05 20.992 37.09l-.098-.031-9.941-3.012-.543-6.129h4.871l.211 2.379 5.559 1.164 5.457-1.164.582-6.438H10.047L8.722 9.055h24.559z"/></svg>