<svg xmlns="http://www.w3.org/2000/svg" fill="none" viewBox="0 0 50 50"><path fill="#4A4A4A" d="M24.99 4.688c-.57 0-1.14.14-1.632.42l-15.484 8.94a3.29 3.29 0 0 0-1.624 2.828v16.217c0 1.172.624 2.251 1.624 2.83l4.065 2.343c1.968.969 2.67.967 3.56.967 2.923 0 4.594-1.765 4.594-4.827V17.673a.454.454 0 0 0-.452-.455h-1.953a.446.446 0 0 0-.455.455V34.39c0 1.375-1.42 2.719-3.717 1.578l-4.25-2.454a.47.47 0 0 1-.251-.42V16.891c0-.188.094-.346.25-.44L24.75 7.516a.45.45 0 0 1 .485 0l15.485 8.936c.156.094.25.252.25.424v16.217a.49.49 0 0 1-.235.421l-15.5 8.954a.53.53 0 0 1-.485 0l-3.986-2.359a.36.36 0 0 0-.372-.03c-1.11.625-1.313.702-2.344 1.062-.25.078-.64.234.14.671l5.17 3.064c.5.281 1.064.437 1.627.437.578 0 1.139-.156 1.639-.437l15.503-8.954a3.27 3.27 0 0 0 1.623-2.829V16.891c0-1.171-.623-2.25-1.623-2.828L26.623 5.108a3.3 3.3 0 0 0-1.632-.421m4.167 12.509c-4.422 0-7.062 1.873-7.062 4.998 0 3.391 2.622 4.327 6.872 4.749 5.078.5 5.469 1.252 5.469 2.252 0 1.719-1.388 2.454-4.654 2.454-4.11 0-5.016-1.033-5.313-3.064a.44.44 0 0 0-.436-.375h-2.018a.437.437 0 0 0-.436.439c0 2.61 1.422 5.716 8.203 5.716 4.906 0 7.718-1.935 7.718-5.31 0-3.344-2.266-4.236-7.016-4.877-4.828-.625-5.313-.953-5.313-2.078 0-.938.423-2.17 3.986-2.17 3.171 0 4.358.685 4.843 2.826.047.203.217.36.436.36h2.017a.46.46 0 0 0 .327-.156.42.42 0 0 0 .11-.344c-.313-3.688-2.765-5.42-7.733-5.42"/></svg>