<svg xmlns="http://www.w3.org/2000/svg" fill="none" viewBox="0 0 50 50"><path fill="#4A4A4A" d="M24.5 2C15.8 2 14 6.492 14 9.094V14h10v1H9.094C5.793 15 2 17.602 2 25s3.793 10 7.094 10H15v-6c0-2.2 1.8-4 4-4h12c1.7 0 3-1.3 3-3V9.094C34 5.594 30.7 2 24.5 2M20 7c1.102 0 2 .898 2 2s-.898 2-2 2-2-.898-2-2 .898-2 2-2m15 8v7c0 2.2-1.8 4-4 4H19c-1.7 0-3 1.3-3 3v11.906c0 3.5 3.3 7.094 9.5 7.094 8.7 0 10.5-4.492 10.5-7.094V36H26v-1h14.906C44.207 35 48 32.398 48 25s-3.793-10-7.094-10zm-5 24c1.102 0 2 .898 2 2s-.898 2-2 2-2-.898-2-2 .898-2 2-2"/></svg>