<svg xmlns="http://www.w3.org/2000/svg" fill="none" viewBox="0 0 50 50"><g clip-path="url(#a)"><path fill="#4A4A4A" d="M17.833 10.292 5.292 31.958l6.26-29.568c.202-.952 1.483-1.134 1.94-.273zm2.313 4.333 2.5 4.688-11.521 10.895zm9.354-1.812-3.73 3.541-3.166-5.958 2.027-3.488a1.041 1.041 0 0 1 1.825.044zm14.52 26.229L25.688 49.708a1.9 1.9 0 0 1-1.041.292c-.355 0-.73-.083-1.042-.27l-16.77-9.688 32.014-30.34a1.041 1.041 0 0 1 1.744.585l4.429 26.609a2.08 2.08 0 0 1-1 2.146"/></g><defs><clipPath id="a"><path fill="#fff" d="M0 0h50v50H0z"/></clipPath></defs></svg>